%TF.GenerationSoftware,KiCad,Pcbnew,9.0.5*%
%TF.CreationDate,2026-07-23T23:43:08+09:00*%
%TF.ProjectId,pb1000_pico2,70623130-3030-45f7-9069-636f322e6b69,rev?*%
%TF.SameCoordinates,Original*%
%TF.FileFunction,Soldermask,Top*%
%TF.FilePolarity,Negative*%
%FSLAX46Y46*%
G04 Gerber Fmt 4.6, Leading zero omitted, Abs format (unit mm)*
G04 Created by KiCad (PCBNEW 9.0.5) date 2026-07-23 23:43:08*
%MOMM*%
%LPD*%
G01*
G04 APERTURE LIST*
G04 Aperture macros list*
%AMRoundRect*
0 Rectangle with rounded corners*
0 $1 Rounding radius*
0 $2 $3 $4 $5 $6 $7 $8 $9 X,Y pos of 4 corners*
0 Add a 4 corners polygon primitive as box body*
4,1,4,$2,$3,$4,$5,$6,$7,$8,$9,$2,$3,0*
0 Add four circle primitives for the rounded corners*
1,1,$1+$1,$2,$3*
1,1,$1+$1,$4,$5*
1,1,$1+$1,$6,$7*
1,1,$1+$1,$8,$9*
0 Add four rect primitives between the rounded corners*
20,1,$1+$1,$2,$3,$4,$5,0*
20,1,$1+$1,$4,$5,$6,$7,0*
20,1,$1+$1,$6,$7,$8,$9,0*
20,1,$1+$1,$8,$9,$2,$3,0*%
%AMFreePoly0*
4,1,37,0.603843,0.796157,0.639018,0.796157,0.711114,0.766294,0.766294,0.711114,0.796157,0.639018,0.796157,0.603843,0.800000,0.600000,0.800000,-0.600000,0.796157,-0.603843,0.796157,-0.639018,0.766294,-0.711114,0.711114,-0.766294,0.639018,-0.796157,0.603843,-0.796157,0.600000,-0.800000,0.000000,-0.800000,0.000000,-0.796148,-0.078414,-0.796148,-0.232228,-0.765552,-0.377117,-0.705537,
-0.507515,-0.618408,-0.618408,-0.507515,-0.705537,-0.377117,-0.765552,-0.232228,-0.796148,-0.078414,-0.796148,0.078414,-0.765552,0.232228,-0.705537,0.377117,-0.618408,0.507515,-0.507515,0.618408,-0.377117,0.705537,-0.232228,0.765552,-0.078414,0.796148,0.000000,0.796148,0.000000,0.800000,0.600000,0.800000,0.603843,0.796157,0.603843,0.796157,$1*%
%AMFreePoly1*
4,1,37,0.000000,0.796148,0.078414,0.796148,0.232228,0.765552,0.377117,0.705537,0.507515,0.618408,0.618408,0.507515,0.705537,0.377117,0.765552,0.232228,0.796148,0.078414,0.796148,-0.078414,0.765552,-0.232228,0.705537,-0.377117,0.618408,-0.507515,0.507515,-0.618408,0.377117,-0.705537,0.232228,-0.765552,0.078414,-0.796148,0.000000,-0.796148,0.000000,-0.800000,-0.600000,-0.800000,
-0.603843,-0.796157,-0.639018,-0.796157,-0.711114,-0.766294,-0.766294,-0.711114,-0.796157,-0.639018,-0.796157,-0.603843,-0.800000,-0.600000,-0.800000,0.600000,-0.796157,0.603843,-0.796157,0.639018,-0.766294,0.711114,-0.711114,0.766294,-0.639018,0.796157,-0.603843,0.796157,-0.600000,0.800000,0.000000,0.800000,0.000000,0.796148,0.000000,0.796148,$1*%
G04 Aperture macros list end*
%ADD10C,1.600000*%
%ADD11RoundRect,0.200000X0.600000X-0.600000X0.600000X0.600000X-0.600000X0.600000X-0.600000X-0.600000X0*%
%ADD12FreePoly0,90.000000*%
%ADD13FreePoly1,90.000000*%
%ADD14C,1.100000*%
%ADD15R,1.050000X1.500000*%
%ADD16O,1.050000X1.500000*%
%ADD17R,1.700000X1.700000*%
%ADD18C,1.700000*%
%ADD19C,4.700000*%
%ADD20C,3.200000*%
%ADD21R,1.600000X1.600000*%
G04 APERTURE END LIST*
D10*
%TO.C,J2*%
X117000000Y-133000000D03*
X119000000Y-133000000D03*
X121000000Y-133000000D03*
X123000000Y-133000000D03*
%TD*%
D11*
%TO.C,A1*%
X41900000Y-134280000D03*
D10*
X44440000Y-134280000D03*
D12*
X46980000Y-134280000D03*
D10*
X49520000Y-134280000D03*
X52060000Y-134280000D03*
X54600000Y-134280000D03*
X57140000Y-134280000D03*
D12*
X59680000Y-134280000D03*
D10*
X62220000Y-134280000D03*
X64760000Y-134280000D03*
X67300000Y-134280000D03*
X69840000Y-134280000D03*
D12*
X72380000Y-134280000D03*
D10*
X74920000Y-134280000D03*
X77460000Y-134280000D03*
X80000000Y-134280000D03*
X82540000Y-134280000D03*
D12*
X85080000Y-134280000D03*
D10*
X87620000Y-134280000D03*
X90160000Y-134280000D03*
X90160000Y-116500000D03*
X87620000Y-116500000D03*
D13*
X85080000Y-116500000D03*
D10*
X82540000Y-116500000D03*
X80000000Y-116500000D03*
X77460000Y-116500000D03*
X74920000Y-116500000D03*
D13*
X72380000Y-116500000D03*
D10*
X69840000Y-116500000D03*
X67300000Y-116500000D03*
X64760000Y-116500000D03*
X62220000Y-116500000D03*
D13*
X59680000Y-116500000D03*
D10*
X57140000Y-116500000D03*
X54600000Y-116500000D03*
X52060000Y-116500000D03*
X49520000Y-116500000D03*
D13*
X46980000Y-116500000D03*
D10*
X44440000Y-116500000D03*
X41900000Y-116500000D03*
%TD*%
D14*
%TO.C,BZ1*%
X103500000Y-117000000D03*
X108500000Y-117000000D03*
%TD*%
D15*
%TO.C,Q1*%
X132230000Y-113360000D03*
D16*
X133500000Y-113360000D03*
X134770000Y-113360000D03*
%TD*%
D10*
%TO.C,J3*%
X104000000Y-133000000D03*
X106000000Y-133000000D03*
X108000000Y-133000000D03*
X110000000Y-133000000D03*
%TD*%
%TO.C,R2*%
X114920000Y-111500000D03*
X125080000Y-111500000D03*
%TD*%
%TO.C,J4*%
X131500000Y-42500000D03*
X133500000Y-42500000D03*
X135500000Y-42500000D03*
X137500000Y-42500000D03*
%TD*%
D17*
%TO.C,J1*%
X69840000Y-43000000D03*
D18*
X72380000Y-43000000D03*
X74920000Y-43000000D03*
X77460000Y-43000000D03*
X80000000Y-43000000D03*
X82540000Y-43000000D03*
%TD*%
D17*
%TO.C,J6*%
X49880000Y-43000000D03*
D18*
X52420000Y-43000000D03*
X54960000Y-43000000D03*
X57500000Y-43000000D03*
X60040000Y-43000000D03*
X62580000Y-43000000D03*
%TD*%
D17*
%TO.C,J8*%
X131000000Y-74880000D03*
D18*
X131000000Y-77420000D03*
X131000000Y-79960000D03*
X131000000Y-82500000D03*
%TD*%
D19*
%TO.C,U1*%
X145000000Y-50860000D03*
D20*
X42960000Y-50860000D03*
D19*
X145000000Y-105760000D03*
D20*
X42960000Y-105760000D03*
D21*
X41960000Y-61800000D03*
D10*
X41960000Y-64340000D03*
X41960000Y-66880000D03*
X41960000Y-69420000D03*
X41960000Y-71960000D03*
X41960000Y-74500000D03*
X41960000Y-77040000D03*
X41960000Y-79580000D03*
X41960000Y-82120000D03*
X41960000Y-84660000D03*
X41960000Y-87200000D03*
X41960000Y-89740000D03*
X41960000Y-92280000D03*
X41960000Y-94820000D03*
D21*
X145000000Y-74500000D03*
D10*
X145000000Y-77040000D03*
X145000000Y-79580000D03*
X145000000Y-82120000D03*
%TD*%
D21*
%TO.C,J5*%
X129824669Y-131540000D03*
D10*
X129824669Y-128770000D03*
X129824669Y-126000000D03*
X129824669Y-123230000D03*
X129824669Y-120460000D03*
X132664669Y-130155000D03*
X132664669Y-127385000D03*
X132664669Y-124615000D03*
X132664669Y-121845000D03*
%TD*%
%TO.C,J7*%
X117000000Y-122500000D03*
X119000000Y-122500000D03*
X121000000Y-122500000D03*
X123000000Y-122500000D03*
%TD*%
%TO.C,R1*%
X125000000Y-115500000D03*
X114840000Y-115500000D03*
%TD*%
M02*
