M48
; DRILL file {KiCad 9.0.5} date 2026-07-23T23:43:12+0900
; FORMAT={-:-/ absolute / metric / decimal}
; #@! TF.CreationDate,2026-07-23T23:43:12+09:00
; #@! TF.GenerationSoftware,Kicad,Pcbnew,9.0.5
; #@! TF.FileFunction,Plated,1,2,PTH
FMAT,2
METRIC
; #@! TA.AperFunction,Plated,PTH,ViaDrill
T1C0.300
; #@! TA.AperFunction,Plated,PTH,ComponentDrill
T2C0.700
; #@! TA.AperFunction,Plated,PTH,ComponentDrill
T3C0.750
; #@! TA.AperFunction,Plated,PTH,ComponentDrill
T4C0.800
; #@! TA.AperFunction,Plated,PTH,ComponentDrill
T5C1.000
; #@! TA.AperFunction,Plated,PTH,ComponentDrill
T6C2.000
; #@! TA.AperFunction,Plated,PTH,ComponentDrill
T7C3.200
%
G90
G05
T1
X44.5Y-85.4
X45.5Y-87.438
X46.0Y-90.0
X48.0Y-71.9
X48.0Y-83.5
X49.0Y-63.0
X49.0Y-84.897
X49.0Y-100.0
X50.5Y-79.5
X51.5Y-98.0
X52.0Y-73.5
X52.0Y-79.5
X56.0Y-89.0
X56.5Y-122.5
X56.5Y-126.5
X57.0Y-58.0
X57.5Y-122.5
X58.5Y-89.0
X60.0Y-111.0
X60.5Y-69.0
X67.5Y-84.897
X67.5Y-130.5
X70.0Y-123.5
X71.5Y-129.5
X75.0Y-96.5
X75.0Y-131.0
X76.5Y-122.5
X77.5Y-91.0
X77.5Y-131.0
X79.0Y-111.0
X80.0Y-86.5
X85.5Y-112.0
X92.664Y-114.0
X98.5Y-136.001
X101.0Y-125.0
X101.5Y-123.5
X113.0Y-89.0
X127.0Y-120.0
T2
X103.5Y-117.0
X108.5Y-117.0
T3
X132.23Y-113.36
X133.5Y-113.36
X134.77Y-113.36
T4
X41.96Y-61.8
X41.96Y-64.34
X41.96Y-66.88
X41.96Y-69.42
X41.96Y-71.96
X41.96Y-74.5
X41.96Y-77.04
X41.96Y-79.58
X41.96Y-82.12
X41.96Y-84.66
X41.96Y-87.2
X41.96Y-89.74
X41.96Y-92.28
X41.96Y-94.82
X114.84Y-115.5
X114.92Y-111.5
X125.0Y-115.5
X125.08Y-111.5
X145.0Y-74.5
X145.0Y-77.04
X145.0Y-79.58
X145.0Y-82.12
T5
X41.9Y-116.5
X41.9Y-134.28
X44.44Y-116.5
X44.44Y-134.28
X46.98Y-116.5
X46.98Y-134.28
X49.52Y-116.5
X49.52Y-134.28
X49.88Y-43.0
X52.06Y-116.5
X52.06Y-134.28
X52.42Y-43.0
X54.6Y-116.5
X54.6Y-134.28
X54.96Y-43.0
X57.14Y-116.5
X57.14Y-134.28
X57.5Y-43.0
X59.68Y-116.5
X59.68Y-134.28
X60.04Y-43.0
X62.22Y-116.5
X62.22Y-134.28
X62.58Y-43.0
X64.76Y-116.5
X64.76Y-134.28
X67.3Y-116.5
X67.3Y-134.28
X69.84Y-43.0
X69.84Y-116.5
X69.84Y-134.28
X72.38Y-43.0
X72.38Y-116.5
X72.38Y-134.28
X74.92Y-43.0
X74.92Y-116.5
X74.92Y-134.28
X77.46Y-43.0
X77.46Y-116.5
X77.46Y-134.28
X80.0Y-43.0
X80.0Y-116.5
X80.0Y-134.28
X82.54Y-43.0
X82.54Y-116.5
X82.54Y-134.28
X85.08Y-116.5
X85.08Y-134.28
X87.62Y-116.5
X87.62Y-134.28
X90.16Y-116.5
X90.16Y-134.28
X104.0Y-133.0
X106.0Y-133.0
X108.0Y-133.0
X110.0Y-133.0
X117.0Y-122.5
X117.0Y-133.0
X119.0Y-122.5
X119.0Y-133.0
X121.0Y-122.5
X121.0Y-133.0
X123.0Y-122.5
X123.0Y-133.0
X129.825Y-120.46
X129.825Y-123.23
X129.825Y-126.0
X129.825Y-128.77
X129.825Y-131.54
X131.0Y-74.88
X131.0Y-77.42
X131.0Y-79.96
X131.0Y-82.5
X131.5Y-42.5
X132.665Y-121.845
X132.665Y-124.615
X132.665Y-127.385
X132.665Y-130.155
X133.5Y-42.5
X135.5Y-42.5
X137.5Y-42.5
T6
X42.96Y-50.86
X42.96Y-105.76
T7
X145.0Y-50.86
X145.0Y-105.76
M30
