%TF.GenerationSoftware,KiCad,Pcbnew,9.0.5*%
%TF.CreationDate,2026-06-27T16:47:46+09:00*%
%TF.ProjectId,pb1000_pico2,70623130-3030-45f7-9069-636f322e6b69,rev?*%
%TF.SameCoordinates,Original*%
%TF.FileFunction,Legend,Top*%
%TF.FilePolarity,Positive*%
%FSLAX46Y46*%
G04 Gerber Fmt 4.6, Leading zero omitted, Abs format (unit mm)*
G04 Created by KiCad (PCBNEW 9.0.5) date 2026-06-27 16:47:46*
%MOMM*%
%LPD*%
G01*
G04 APERTURE LIST*
%ADD10C,0.150000*%
%ADD11C,0.120000*%
%ADD12C,0.100000*%
G04 APERTURE END LIST*
D10*
X94934104Y-112963339D02*
X94934104Y-112487149D01*
X95219819Y-113058577D02*
X94219819Y-112725244D01*
X94219819Y-112725244D02*
X95219819Y-112391911D01*
X95219819Y-111534768D02*
X95219819Y-112106196D01*
X95219819Y-111820482D02*
X94219819Y-111820482D01*
X94219819Y-111820482D02*
X94362676Y-111915720D01*
X94362676Y-111915720D02*
X94457914Y-112010958D01*
X94457914Y-112010958D02*
X94505533Y-112106196D01*
X153597319Y-50649404D02*
X154406842Y-50649404D01*
X154406842Y-50649404D02*
X154502080Y-50601785D01*
X154502080Y-50601785D02*
X154549700Y-50554166D01*
X154549700Y-50554166D02*
X154597319Y-50458928D01*
X154597319Y-50458928D02*
X154597319Y-50268452D01*
X154597319Y-50268452D02*
X154549700Y-50173214D01*
X154549700Y-50173214D02*
X154502080Y-50125595D01*
X154502080Y-50125595D02*
X154406842Y-50077976D01*
X154406842Y-50077976D02*
X153597319Y-50077976D01*
X154597319Y-49077976D02*
X154597319Y-49649404D01*
X154597319Y-49363690D02*
X153597319Y-49363690D01*
X153597319Y-49363690D02*
X153740176Y-49458928D01*
X153740176Y-49458928D02*
X153835414Y-49554166D01*
X153835414Y-49554166D02*
X153883033Y-49649404D01*
X129666666Y-127954819D02*
X129666666Y-128669104D01*
X129666666Y-128669104D02*
X129619047Y-128811961D01*
X129619047Y-128811961D02*
X129523809Y-128907200D01*
X129523809Y-128907200D02*
X129380952Y-128954819D01*
X129380952Y-128954819D02*
X129285714Y-128954819D01*
X130095238Y-128050057D02*
X130142857Y-128002438D01*
X130142857Y-128002438D02*
X130238095Y-127954819D01*
X130238095Y-127954819D02*
X130476190Y-127954819D01*
X130476190Y-127954819D02*
X130571428Y-128002438D01*
X130571428Y-128002438D02*
X130619047Y-128050057D01*
X130619047Y-128050057D02*
X130666666Y-128145295D01*
X130666666Y-128145295D02*
X130666666Y-128240533D01*
X130666666Y-128240533D02*
X130619047Y-128383390D01*
X130619047Y-128383390D02*
X130047619Y-128954819D01*
X130047619Y-128954819D02*
X130666666Y-128954819D01*
X112166666Y-127954819D02*
X112166666Y-128669104D01*
X112166666Y-128669104D02*
X112119047Y-128811961D01*
X112119047Y-128811961D02*
X112023809Y-128907200D01*
X112023809Y-128907200D02*
X111880952Y-128954819D01*
X111880952Y-128954819D02*
X111785714Y-128954819D01*
X112547619Y-127954819D02*
X113166666Y-127954819D01*
X113166666Y-127954819D02*
X112833333Y-128335771D01*
X112833333Y-128335771D02*
X112976190Y-128335771D01*
X112976190Y-128335771D02*
X113071428Y-128383390D01*
X113071428Y-128383390D02*
X113119047Y-128431009D01*
X113119047Y-128431009D02*
X113166666Y-128526247D01*
X113166666Y-128526247D02*
X113166666Y-128764342D01*
X113166666Y-128764342D02*
X113119047Y-128859580D01*
X113119047Y-128859580D02*
X113071428Y-128907200D01*
X113071428Y-128907200D02*
X112976190Y-128954819D01*
X112976190Y-128954819D02*
X112690476Y-128954819D01*
X112690476Y-128954819D02*
X112595238Y-128907200D01*
X112595238Y-128907200D02*
X112547619Y-128859580D01*
X145166666Y-30954819D02*
X145166666Y-31669104D01*
X145166666Y-31669104D02*
X145119047Y-31811961D01*
X145119047Y-31811961D02*
X145023809Y-31907200D01*
X145023809Y-31907200D02*
X144880952Y-31954819D01*
X144880952Y-31954819D02*
X144785714Y-31954819D01*
X146071428Y-31288152D02*
X146071428Y-31954819D01*
X145833333Y-30907200D02*
X145595238Y-31621485D01*
X145595238Y-31621485D02*
X146214285Y-31621485D01*
X163666666Y-71834819D02*
X163666666Y-72549104D01*
X163666666Y-72549104D02*
X163619047Y-72691961D01*
X163619047Y-72691961D02*
X163523809Y-72787200D01*
X163523809Y-72787200D02*
X163380952Y-72834819D01*
X163380952Y-72834819D02*
X163285714Y-72834819D01*
X164666666Y-72834819D02*
X164095238Y-72834819D01*
X164380952Y-72834819D02*
X164380952Y-71834819D01*
X164380952Y-71834819D02*
X164285714Y-71977676D01*
X164285714Y-71977676D02*
X164190476Y-72072914D01*
X164190476Y-72072914D02*
X164095238Y-72120533D01*
X43984819Y-37948333D02*
X44699104Y-37948333D01*
X44699104Y-37948333D02*
X44841961Y-37995952D01*
X44841961Y-37995952D02*
X44937200Y-38091190D01*
X44937200Y-38091190D02*
X44984819Y-38234047D01*
X44984819Y-38234047D02*
X44984819Y-38329285D01*
X43984819Y-37043571D02*
X43984819Y-37234047D01*
X43984819Y-37234047D02*
X44032438Y-37329285D01*
X44032438Y-37329285D02*
X44080057Y-37376904D01*
X44080057Y-37376904D02*
X44222914Y-37472142D01*
X44222914Y-37472142D02*
X44413390Y-37519761D01*
X44413390Y-37519761D02*
X44794342Y-37519761D01*
X44794342Y-37519761D02*
X44889580Y-37472142D01*
X44889580Y-37472142D02*
X44937200Y-37424523D01*
X44937200Y-37424523D02*
X44984819Y-37329285D01*
X44984819Y-37329285D02*
X44984819Y-37138809D01*
X44984819Y-37138809D02*
X44937200Y-37043571D01*
X44937200Y-37043571D02*
X44889580Y-36995952D01*
X44889580Y-36995952D02*
X44794342Y-36948333D01*
X44794342Y-36948333D02*
X44556247Y-36948333D01*
X44556247Y-36948333D02*
X44461009Y-36995952D01*
X44461009Y-36995952D02*
X44413390Y-37043571D01*
X44413390Y-37043571D02*
X44365771Y-37138809D01*
X44365771Y-37138809D02*
X44365771Y-37329285D01*
X44365771Y-37329285D02*
X44413390Y-37424523D01*
X44413390Y-37424523D02*
X44461009Y-37472142D01*
X44461009Y-37472142D02*
X44556247Y-37519761D01*
X142479488Y-123333333D02*
X143193773Y-123333333D01*
X143193773Y-123333333D02*
X143336630Y-123380952D01*
X143336630Y-123380952D02*
X143431869Y-123476190D01*
X143431869Y-123476190D02*
X143479488Y-123619047D01*
X143479488Y-123619047D02*
X143479488Y-123714285D01*
X142479488Y-122380952D02*
X142479488Y-122857142D01*
X142479488Y-122857142D02*
X142955678Y-122904761D01*
X142955678Y-122904761D02*
X142908059Y-122857142D01*
X142908059Y-122857142D02*
X142860440Y-122761904D01*
X142860440Y-122761904D02*
X142860440Y-122523809D01*
X142860440Y-122523809D02*
X142908059Y-122428571D01*
X142908059Y-122428571D02*
X142955678Y-122380952D01*
X142955678Y-122380952D02*
X143050916Y-122333333D01*
X143050916Y-122333333D02*
X143289011Y-122333333D01*
X143289011Y-122333333D02*
X143384249Y-122380952D01*
X143384249Y-122380952D02*
X143431869Y-122428571D01*
X143431869Y-122428571D02*
X143479488Y-122523809D01*
X143479488Y-122523809D02*
X143479488Y-122761904D01*
X143479488Y-122761904D02*
X143431869Y-122857142D01*
X143431869Y-122857142D02*
X143384249Y-122904761D01*
X154569819Y-59333333D02*
X155284104Y-59333333D01*
X155284104Y-59333333D02*
X155426961Y-59380952D01*
X155426961Y-59380952D02*
X155522200Y-59476190D01*
X155522200Y-59476190D02*
X155569819Y-59619047D01*
X155569819Y-59619047D02*
X155569819Y-59714285D01*
X154569819Y-58952380D02*
X154569819Y-58285714D01*
X154569819Y-58285714D02*
X155569819Y-58714285D01*
D11*
%TO.C,A1*%
X46930000Y-135610000D02*
X46930000Y-136090000D01*
X46930000Y-135610000D02*
X47350000Y-135610000D01*
X49470000Y-135610000D02*
X49890000Y-135610000D01*
X52010000Y-135610000D02*
X52430000Y-135610000D01*
X54550000Y-135610000D02*
X54970000Y-135610000D01*
X57090000Y-135610000D02*
X57510000Y-135610000D01*
X59630000Y-135610000D02*
X60050000Y-135610000D01*
X62170000Y-135610000D02*
X62590000Y-135610000D01*
X64710000Y-135610000D02*
X65130000Y-135610000D01*
X67250000Y-135610000D02*
X67670000Y-135610000D01*
X69790000Y-135610000D02*
X70210000Y-135610000D01*
X72330000Y-135610000D02*
X72750000Y-135610000D01*
X74870000Y-135610000D02*
X75290000Y-135610000D01*
X77410000Y-135610000D02*
X77830000Y-135610000D01*
X79950000Y-135610000D02*
X80370000Y-135610000D01*
X82490000Y-135610000D02*
X82910000Y-135610000D01*
X85030000Y-135610000D02*
X85450000Y-135610000D01*
X87570000Y-135610000D02*
X87990000Y-135610000D01*
X90110000Y-135610000D02*
X90530000Y-135610000D01*
X92650000Y-135610000D02*
X93070000Y-135610000D01*
X44810000Y-135579676D02*
X44810000Y-136090000D01*
X44810063Y-135270000D02*
X44453000Y-135270000D01*
X46930000Y-135270000D02*
X47350000Y-135270000D01*
X49470000Y-135270000D02*
X49890000Y-135270000D01*
X52010000Y-135270000D02*
X52430000Y-135270000D01*
X54550000Y-135270000D02*
X54970000Y-135270000D01*
X57090000Y-135270000D02*
X57510000Y-135270000D01*
X59630000Y-135270000D02*
X60050000Y-135270000D01*
X62170000Y-135270000D02*
X62590000Y-135270000D01*
X64710000Y-135270000D02*
X65130000Y-135270000D01*
X67250000Y-135270000D02*
X67670000Y-135270000D01*
X69790000Y-135270000D02*
X70210000Y-135270000D01*
X72330000Y-135270000D02*
X72750000Y-135270000D01*
X74870000Y-135270000D02*
X75290000Y-135270000D01*
X77410000Y-135270000D02*
X77830000Y-135270000D01*
X79950000Y-135270000D02*
X80370000Y-135270000D01*
X82490000Y-135270000D02*
X82910000Y-135270000D01*
X85030000Y-135270000D02*
X85450000Y-135270000D01*
X87570000Y-135270000D02*
X87990000Y-135270000D01*
X90110000Y-135270000D02*
X90530000Y-135270000D01*
X92650000Y-135270000D02*
X93070000Y-135270000D01*
X95189937Y-135270000D02*
X95547000Y-135270000D01*
X44390000Y-135000000D02*
X44390000Y-132510000D01*
X95610000Y-135000000D02*
X95610000Y-131162061D01*
X44390000Y-132510000D02*
X45303520Y-132510000D01*
X44390000Y-132510000D02*
X44390000Y-131162060D01*
X47696480Y-132510000D02*
X92303520Y-132510000D01*
X94696480Y-132510000D02*
X95610000Y-132510000D01*
X44390000Y-130237939D02*
X44390000Y-129235000D01*
X44390000Y-129235000D02*
X44390000Y-120765000D01*
X44390000Y-128900000D02*
X45306000Y-128900000D01*
X47694000Y-128900000D02*
X48910000Y-128900000D01*
X48910000Y-128900000D02*
X48910000Y-128603910D01*
X95610000Y-128600000D02*
X95610000Y-130237939D01*
X48910000Y-126246090D02*
X48910000Y-123753910D01*
X95610000Y-121400000D02*
X95610000Y-128600000D01*
X48910000Y-121396090D02*
X48910000Y-121100000D01*
X44390000Y-121100000D02*
X45306000Y-121100000D01*
X47694000Y-121100000D02*
X48910000Y-121100000D01*
X44390000Y-120765000D02*
X44390000Y-119762061D01*
X95610000Y-119762061D02*
X95610000Y-121400000D01*
X44390000Y-118837939D02*
X44390000Y-117490000D01*
X95610000Y-118837939D02*
X95610000Y-115000000D01*
X44390000Y-117490000D02*
X45303520Y-117490000D01*
X47696480Y-117490000D02*
X92303520Y-117490000D01*
X94696480Y-117490000D02*
X95610000Y-117490000D01*
X44390000Y-115000000D02*
X44390000Y-117490000D01*
X44810063Y-114730000D02*
X44453000Y-114730000D01*
X46930000Y-114730000D02*
X47350000Y-114730000D01*
X49470000Y-114730000D02*
X49890000Y-114730000D01*
X52010000Y-114730000D02*
X52430000Y-114730000D01*
X54550000Y-114730000D02*
X54970000Y-114730000D01*
X57090000Y-114730000D02*
X57510000Y-114730000D01*
X59630000Y-114730000D02*
X60050000Y-114730000D01*
X62170000Y-114730000D02*
X62590000Y-114730000D01*
X64710000Y-114730000D02*
X65130000Y-114730000D01*
X67250000Y-114730000D02*
X67670000Y-114730000D01*
X69790000Y-114730000D02*
X70210000Y-114730000D01*
X72330000Y-114730000D02*
X72750000Y-114730000D01*
X74870000Y-114730000D02*
X75290000Y-114730000D01*
X77410000Y-114730000D02*
X77830000Y-114730000D01*
X79950000Y-114730000D02*
X80370000Y-114730000D01*
X82490000Y-114730000D02*
X82910000Y-114730000D01*
X85030000Y-114730000D02*
X85450000Y-114730000D01*
X87570000Y-114730000D02*
X87990000Y-114730000D01*
X90110000Y-114730000D02*
X90530000Y-114730000D01*
X92650000Y-114730000D02*
X93070000Y-114730000D01*
X95189937Y-114730000D02*
X95547000Y-114730000D01*
X46930000Y-114390000D02*
X47350000Y-114390000D01*
X49470000Y-114390000D02*
X49890000Y-114390000D01*
X52010000Y-114390000D02*
X52430000Y-114390000D01*
X54550000Y-114390000D02*
X54970000Y-114390000D01*
X57090000Y-114390000D02*
X57510000Y-114390000D01*
X59630000Y-114390000D02*
X60050000Y-114390000D01*
X62170000Y-114390000D02*
X62590000Y-114390000D01*
X64710000Y-114390000D02*
X65130000Y-114390000D01*
X67250000Y-114390000D02*
X67670000Y-114390000D01*
X69790000Y-114390000D02*
X70210000Y-114390000D01*
X72330000Y-114390000D02*
X72750000Y-114390000D01*
X74870000Y-114390000D02*
X75290000Y-114390000D01*
X77410000Y-114390000D02*
X77830000Y-114390000D01*
X79950000Y-114390000D02*
X80370000Y-114390000D01*
X82490000Y-114390000D02*
X82910000Y-114390000D01*
X85030000Y-114390000D02*
X85450000Y-114390000D01*
X87570000Y-114390000D02*
X87990000Y-114390000D01*
X90110000Y-114390000D02*
X90530000Y-114390000D01*
X92650000Y-114390000D02*
X93070000Y-114390000D01*
X44810000Y-135579676D02*
G75*
G02*
X44390000Y-135000000I190051J579692D01*
G01*
X95610000Y-135000000D02*
G75*
G02*
X95189937Y-135579676I-610002J1D01*
G01*
X44390000Y-115000000D02*
G75*
G02*
X44810063Y-114420324I610000J0D01*
G01*
X95189937Y-114420324D02*
G75*
G02*
X95610069Y-115000000I-189837J-579676D01*
G01*
%TO.C,U1*%
X152972500Y-47677500D02*
X152972500Y-109417500D01*
X44932500Y-109417500D02*
X44932500Y-47677500D01*
X152972500Y-109417500D02*
X44932500Y-109417500D01*
X44932500Y-47677500D02*
X152972500Y-47677500D01*
D12*
X143572500Y-50707500D02*
X143572500Y-106387500D01*
X143572500Y-106387500D02*
X60052500Y-106387500D01*
X60052500Y-106387500D02*
X60052500Y-50707500D01*
X60052500Y-50707500D02*
X143572500Y-50707500D01*
D11*
%TO.C,J2*%
X125500000Y-130500000D02*
X125500000Y-135500000D01*
X125500000Y-130500000D02*
X134500000Y-130500000D01*
X125500000Y-135500000D02*
X134500000Y-135500000D01*
X134500000Y-130500000D02*
X134500000Y-135500000D01*
D12*
X125900000Y-131000000D02*
G75*
G02*
X125500000Y-131000000I-200000J0D01*
G01*
X125500000Y-131000000D02*
G75*
G02*
X125900000Y-131000000I200000J0D01*
G01*
D11*
%TO.C,J3*%
X108000000Y-130500000D02*
X108000000Y-135500000D01*
X108000000Y-130500000D02*
X117000000Y-130500000D01*
X108000000Y-135500000D02*
X117000000Y-135500000D01*
X117000000Y-130500000D02*
X117000000Y-135500000D01*
D12*
X108400000Y-131000000D02*
G75*
G02*
X108000000Y-131000000I-200000J0D01*
G01*
X108000000Y-131000000D02*
G75*
G02*
X108400000Y-131000000I200000J0D01*
G01*
D11*
%TO.C,J4*%
X141000000Y-33500000D02*
X141000000Y-38500000D01*
X141000000Y-33500000D02*
X150000000Y-33500000D01*
X141000000Y-38500000D02*
X150000000Y-38500000D01*
X150000000Y-33500000D02*
X150000000Y-38500000D01*
D12*
X141400000Y-34000000D02*
G75*
G02*
X141000000Y-34000000I-200000J0D01*
G01*
X141000000Y-34000000D02*
G75*
G02*
X141400000Y-34000000I200000J0D01*
G01*
D11*
%TO.C,J1*%
X158345000Y-73380000D02*
X159615000Y-73380000D01*
X158345000Y-74650000D02*
X158345000Y-73380000D01*
X160692358Y-76760000D02*
X161005000Y-76760000D01*
X160692358Y-77620000D02*
X161005000Y-77620000D01*
X160692358Y-79300000D02*
X161005000Y-79300000D01*
X160692358Y-80160000D02*
X161005000Y-80160000D01*
X160692358Y-81840000D02*
X161005000Y-81840000D01*
X160692358Y-82700000D02*
X161005000Y-82700000D01*
X160692358Y-84380000D02*
X161005000Y-84380000D01*
X160692358Y-85240000D02*
X161005000Y-85240000D01*
X160692358Y-86920000D02*
X161005000Y-86920000D01*
X160692358Y-87780000D02*
X161005000Y-87780000D01*
X160775000Y-74220000D02*
X161005000Y-74220000D01*
X160775000Y-75080000D02*
X161005000Y-75080000D01*
X161005000Y-73270000D02*
X161005000Y-88730000D01*
X161005000Y-75920000D02*
X163765000Y-75920000D01*
X161005000Y-78460000D02*
X163765000Y-78460000D01*
X161005000Y-81000000D02*
X163765000Y-81000000D01*
X161005000Y-83540000D02*
X163765000Y-83540000D01*
X161005000Y-86080000D02*
X163765000Y-86080000D01*
X161005000Y-88730000D02*
X163765000Y-88730000D01*
X163765000Y-73270000D02*
X161005000Y-73270000D01*
X163765000Y-76760000D02*
X169765000Y-76760000D01*
X163765000Y-79300000D02*
X169765000Y-79300000D01*
X163765000Y-81840000D02*
X169765000Y-81840000D01*
X163765000Y-84380000D02*
X169765000Y-84380000D01*
X163765000Y-86920000D02*
X169765000Y-86920000D01*
X163765000Y-88730000D02*
X163765000Y-73270000D01*
X169765000Y-76760000D02*
X169765000Y-77620000D01*
X169765000Y-77620000D02*
X163765000Y-77620000D01*
X169765000Y-79300000D02*
X169765000Y-80160000D01*
X169765000Y-80160000D02*
X163765000Y-80160000D01*
X169765000Y-81840000D02*
X169765000Y-82700000D01*
X169765000Y-82700000D02*
X163765000Y-82700000D01*
X169765000Y-84380000D02*
X169765000Y-85240000D01*
X169765000Y-85240000D02*
X163765000Y-85240000D01*
X169765000Y-86920000D02*
X169765000Y-87780000D01*
X169765000Y-87780000D02*
X163765000Y-87780000D01*
X163765000Y-74220000D02*
X169765000Y-74220000D01*
X169765000Y-75080000D01*
X163765000Y-75080000D01*
X163765000Y-74220000D01*
G36*
X163765000Y-74220000D02*
G01*
X169765000Y-74220000D01*
X169765000Y-75080000D01*
X163765000Y-75080000D01*
X163765000Y-74220000D01*
G37*
%TO.C,J6*%
X45530000Y-43270000D02*
X45530000Y-42000000D01*
X46800000Y-43270000D02*
X45530000Y-43270000D01*
X48910000Y-40922642D02*
X48910000Y-40610000D01*
X49770000Y-40922642D02*
X49770000Y-40610000D01*
X51450000Y-40922642D02*
X51450000Y-40610000D01*
X52310000Y-40922642D02*
X52310000Y-40610000D01*
X53990000Y-40922642D02*
X53990000Y-40610000D01*
X54850000Y-40922642D02*
X54850000Y-40610000D01*
X56530000Y-40922642D02*
X56530000Y-40610000D01*
X57390000Y-40922642D02*
X57390000Y-40610000D01*
X59070000Y-40922642D02*
X59070000Y-40610000D01*
X59930000Y-40922642D02*
X59930000Y-40610000D01*
X46370000Y-40840000D02*
X46370000Y-40610000D01*
X47230000Y-40840000D02*
X47230000Y-40610000D01*
X45420000Y-40610000D02*
X60880000Y-40610000D01*
X48070000Y-40610000D02*
X48070000Y-37850000D01*
X50610000Y-40610000D02*
X50610000Y-37850000D01*
X53150000Y-40610000D02*
X53150000Y-37850000D01*
X55690000Y-40610000D02*
X55690000Y-37850000D01*
X58230000Y-40610000D02*
X58230000Y-37850000D01*
X60880000Y-40610000D02*
X60880000Y-37850000D01*
X45420000Y-37850000D02*
X45420000Y-40610000D01*
X48910000Y-37850000D02*
X48910000Y-31850000D01*
X51450000Y-37850000D02*
X51450000Y-31850000D01*
X53990000Y-37850000D02*
X53990000Y-31850000D01*
X56530000Y-37850000D02*
X56530000Y-31850000D01*
X59070000Y-37850000D02*
X59070000Y-31850000D01*
X60880000Y-37850000D02*
X45420000Y-37850000D01*
X48910000Y-31850000D02*
X49770000Y-31850000D01*
X49770000Y-31850000D02*
X49770000Y-37850000D01*
X51450000Y-31850000D02*
X52310000Y-31850000D01*
X52310000Y-31850000D02*
X52310000Y-37850000D01*
X53990000Y-31850000D02*
X54850000Y-31850000D01*
X54850000Y-31850000D02*
X54850000Y-37850000D01*
X56530000Y-31850000D02*
X57390000Y-31850000D01*
X57390000Y-31850000D02*
X57390000Y-37850000D01*
X59070000Y-31850000D02*
X59930000Y-31850000D01*
X59930000Y-31850000D02*
X59930000Y-37850000D01*
X46370000Y-37850000D02*
X47230000Y-37850000D01*
X47230000Y-31850000D01*
X46370000Y-31850000D01*
X46370000Y-37850000D01*
G36*
X46370000Y-37850000D02*
G01*
X47230000Y-37850000D01*
X47230000Y-31850000D01*
X46370000Y-31850000D01*
X46370000Y-37850000D01*
G37*
%TO.C,J5*%
X152904669Y-131610000D02*
X152904669Y-129600000D01*
X157004669Y-131610000D02*
X152904669Y-131610000D01*
X143764669Y-129600000D02*
X143764669Y-116400000D01*
X152904669Y-129600000D02*
X143764669Y-129600000D01*
X143070331Y-128790000D02*
X143070331Y-128290000D01*
X143503344Y-128540000D02*
X143070331Y-128790000D01*
X143070331Y-128290000D02*
X143503344Y-128540000D01*
X143764669Y-116400000D02*
X152904669Y-116400000D01*
X152904669Y-116400000D02*
X152904669Y-114390000D01*
X152904669Y-114390000D02*
X157004669Y-114390000D01*
%TO.C,J7*%
X157115000Y-63500000D02*
X162115000Y-63500000D01*
X157115000Y-63500000D02*
X157115000Y-54500000D01*
X162115000Y-63500000D02*
X162115000Y-54500000D01*
X157115000Y-54500000D02*
X162115000Y-54500000D01*
D12*
X157815000Y-63300000D02*
G75*
G02*
X157415000Y-63300000I-200000J0D01*
G01*
X157415000Y-63300000D02*
G75*
G02*
X157815000Y-63300000I200000J0D01*
G01*
%TD*%
M02*
