%TF.GenerationSoftware,KiCad,Pcbnew,9.0.5*%
%TF.CreationDate,2026-06-27T16:47:46+09:00*%
%TF.ProjectId,pb1000_pico2,70623130-3030-45f7-9069-636f322e6b69,rev?*%
%TF.SameCoordinates,Original*%
%TF.FileFunction,Copper,L2,Bot*%
%TF.FilePolarity,Positive*%
%FSLAX46Y46*%
G04 Gerber Fmt 4.6, Leading zero omitted, Abs format (unit mm)*
G04 Created by KiCad (PCBNEW 9.0.5) date 2026-06-27 16:47:46*
%MOMM*%
%LPD*%
G01*
G04 APERTURE LIST*
G04 Aperture macros list*
%AMRoundRect*
0 Rectangle with rounded corners*
0 $1 Rounding radius*
0 $2 $3 $4 $5 $6 $7 $8 $9 X,Y pos of 4 corners*
0 Add a 4 corners polygon primitive as box body*
4,1,4,$2,$3,$4,$5,$6,$7,$8,$9,$2,$3,0*
0 Add four circle primitives for the rounded corners*
1,1,$1+$1,$2,$3*
1,1,$1+$1,$4,$5*
1,1,$1+$1,$6,$7*
1,1,$1+$1,$8,$9*
0 Add four rect primitives between the rounded corners*
20,1,$1+$1,$2,$3,$4,$5,0*
20,1,$1+$1,$4,$5,$6,$7,0*
20,1,$1+$1,$6,$7,$8,$9,0*
20,1,$1+$1,$8,$9,$2,$3,0*%
%AMFreePoly0*
4,1,37,0.603843,0.796157,0.639018,0.796157,0.711114,0.766294,0.766294,0.711114,0.796157,0.639018,0.796157,0.603843,0.800000,0.600000,0.800000,-0.600000,0.796157,-0.603843,0.796157,-0.639018,0.766294,-0.711114,0.711114,-0.766294,0.639018,-0.796157,0.603843,-0.796157,0.600000,-0.800000,0.000000,-0.800000,0.000000,-0.796148,-0.078414,-0.796148,-0.232228,-0.765552,-0.377117,-0.705537,
-0.507515,-0.618408,-0.618408,-0.507515,-0.705537,-0.377117,-0.765552,-0.232228,-0.796148,-0.078414,-0.796148,0.078414,-0.765552,0.232228,-0.705537,0.377117,-0.618408,0.507515,-0.507515,0.618408,-0.377117,0.705537,-0.232228,0.765552,-0.078414,0.796148,0.000000,0.796148,0.000000,0.800000,0.600000,0.800000,0.603843,0.796157,0.603843,0.796157,$1*%
%AMFreePoly1*
4,1,37,0.000000,0.796148,0.078414,0.796148,0.232228,0.765552,0.377117,0.705537,0.507515,0.618408,0.618408,0.507515,0.705537,0.377117,0.765552,0.232228,0.796148,0.078414,0.796148,-0.078414,0.765552,-0.232228,0.705537,-0.377117,0.618408,-0.507515,0.507515,-0.618408,0.377117,-0.705537,0.232228,-0.765552,0.078414,-0.796148,0.000000,-0.796148,0.000000,-0.800000,-0.600000,-0.800000,
-0.603843,-0.796157,-0.639018,-0.796157,-0.711114,-0.766294,-0.766294,-0.711114,-0.796157,-0.639018,-0.796157,-0.603843,-0.800000,-0.600000,-0.800000,0.600000,-0.796157,0.603843,-0.796157,0.639018,-0.766294,0.711114,-0.711114,0.766294,-0.639018,0.796157,-0.603843,0.796157,-0.600000,0.800000,0.000000,0.800000,0.000000,0.796148,0.000000,0.796148,$1*%
G04 Aperture macros list end*
%TA.AperFunction,ComponentPad*%
%ADD10RoundRect,0.200000X0.600000X-0.600000X0.600000X0.600000X-0.600000X0.600000X-0.600000X-0.600000X0*%
%TD*%
%TA.AperFunction,ComponentPad*%
%ADD11C,1.600000*%
%TD*%
%TA.AperFunction,ComponentPad*%
%ADD12FreePoly0,90.000000*%
%TD*%
%TA.AperFunction,ComponentPad*%
%ADD13FreePoly1,90.000000*%
%TD*%
%TA.AperFunction,ComponentPad*%
%ADD14C,4.700000*%
%TD*%
%TA.AperFunction,ComponentPad*%
%ADD15C,3.200000*%
%TD*%
%TA.AperFunction,ComponentPad*%
%ADD16R,1.600000X1.600000*%
%TD*%
%TA.AperFunction,ComponentPad*%
%ADD17R,1.700000X1.700000*%
%TD*%
%TA.AperFunction,ComponentPad*%
%ADD18C,1.700000*%
%TD*%
%TA.AperFunction,ViaPad*%
%ADD19C,0.600000*%
%TD*%
%TA.AperFunction,Conductor*%
%ADD20C,0.200000*%
%TD*%
G04 APERTURE END LIST*
D10*
%TO.P,A1,1,GPIO0*%
%TO.N,Net-(A1-GPIO0)*%
X45870000Y-133890000D03*
D11*
%TO.P,A1,2,GPIO1*%
%TO.N,Net-(A1-GPIO1)*%
X48410000Y-133890000D03*
D12*
%TO.P,A1,3,GND*%
%TO.N,Net-(J1-GND)*%
X50950000Y-133890000D03*
D11*
%TO.P,A1,4,GPIO2*%
%TO.N,Net-(A1-GPIO2)*%
X53490000Y-133890000D03*
%TO.P,A1,5,GPIO3*%
%TO.N,Net-(A1-GPIO3)*%
X56030000Y-133890000D03*
%TO.P,A1,6,GPIO4*%
%TO.N,Net-(A1-GPIO4)*%
X58570000Y-133890000D03*
%TO.P,A1,7,GPIO5*%
%TO.N,Net-(A1-GPIO5)*%
X61110000Y-133890000D03*
D12*
%TO.P,A1,8,GND*%
%TO.N,Net-(J1-GND)*%
X63650000Y-133890000D03*
D11*
%TO.P,A1,9,GPIO6*%
%TO.N,Net-(A1-GPIO6)*%
X66190000Y-133890000D03*
%TO.P,A1,10,GPIO7*%
%TO.N,Net-(A1-GPIO7)*%
X68730000Y-133890000D03*
%TO.P,A1,11,GPIO8*%
%TO.N,Net-(A1-GPIO8)*%
X71270000Y-133890000D03*
%TO.P,A1,12,GPIO9*%
%TO.N,Net-(A1-GPIO9)*%
X73810000Y-133890000D03*
D12*
%TO.P,A1,13,GND*%
%TO.N,Net-(J1-GND)*%
X76350000Y-133890000D03*
D11*
%TO.P,A1,14,GPIO10*%
%TO.N,Net-(A1-GPIO10)*%
X78890000Y-133890000D03*
%TO.P,A1,15,GPIO11*%
%TO.N,Net-(A1-GPIO11)*%
X81430000Y-133890000D03*
%TO.P,A1,16,GPIO12*%
%TO.N,Net-(A1-GPIO12)*%
X83970000Y-133890000D03*
%TO.P,A1,17,GPIO13*%
%TO.N,Net-(A1-GPIO13)*%
X86510000Y-133890000D03*
D12*
%TO.P,A1,18,GND*%
%TO.N,Net-(J1-GND)*%
X89050000Y-133890000D03*
D11*
%TO.P,A1,19,GPIO14*%
%TO.N,Net-(A1-GPIO14)*%
X91590000Y-133890000D03*
%TO.P,A1,20,GPIO15*%
%TO.N,Net-(A1-GPIO15)*%
X94130000Y-133890000D03*
%TO.P,A1,21,GPIO16*%
%TO.N,Net-(A1-GPIO16)*%
X94130000Y-116110000D03*
%TO.P,A1,22,GPIO17*%
%TO.N,Net-(A1-GPIO17)*%
X91590000Y-116110000D03*
D13*
%TO.P,A1,23,GND*%
%TO.N,Net-(J1-GND)*%
X89050000Y-116110000D03*
D11*
%TO.P,A1,24,GPIO18*%
%TO.N,Net-(A1-GPIO18)*%
X86510000Y-116110000D03*
%TO.P,A1,25,GPIO19*%
%TO.N,Net-(A1-GPIO19)*%
X83970000Y-116110000D03*
%TO.P,A1,26,GPIO20*%
%TO.N,Net-(A1-GPIO20)*%
X81430000Y-116110000D03*
%TO.P,A1,27,GPIO21*%
%TO.N,Net-(A1-GPIO21)*%
X78890000Y-116110000D03*
D13*
%TO.P,A1,28,GND*%
%TO.N,Net-(J1-GND)*%
X76350000Y-116110000D03*
D11*
%TO.P,A1,29,GPIO22*%
%TO.N,Net-(A1-GPIO22)*%
X73810000Y-116110000D03*
%TO.P,A1,30,RUN*%
%TO.N,unconnected-(A1-RUN-Pad30)*%
X71270000Y-116110000D03*
%TO.P,A1,31,GPIO26_ADC0*%
%TO.N,Net-(A1-GPIO26_ADC0)*%
X68730000Y-116110000D03*
%TO.P,A1,32,GPIO27_ADC1*%
%TO.N,Net-(A1-GPIO27_ADC1)*%
X66190000Y-116110000D03*
D13*
%TO.P,A1,33,AGND*%
%TO.N,unconnected-(A1-AGND-Pad33)_1*%
X63650000Y-116110000D03*
D11*
%TO.P,A1,34,GPIO28_ADC2*%
%TO.N,Net-(A1-GPIO28_ADC2)*%
X61110000Y-116110000D03*
%TO.P,A1,35,ADC_VREF*%
%TO.N,unconnected-(A1-ADC_VREF-Pad35)*%
X58570000Y-116110000D03*
%TO.P,A1,36,3V3*%
%TO.N,Net-(A1-3V3)*%
X56030000Y-116110000D03*
%TO.P,A1,37,3V3_EN*%
%TO.N,unconnected-(A1-3V3_EN-Pad37)_1*%
X53490000Y-116110000D03*
D13*
%TO.P,A1,38,GND*%
%TO.N,Net-(J1-GND)*%
X50950000Y-116110000D03*
D11*
%TO.P,A1,39,VSYS*%
%TO.N,unconnected-(A1-VSYS-Pad39)*%
X48410000Y-116110000D03*
%TO.P,A1,40,VBUS*%
%TO.N,Net-(A1-VBUS)*%
X45870000Y-116110000D03*
%TD*%
D14*
%TO.P,U1,*%
%TO.N,*%
X149972500Y-51097500D03*
X149972500Y-105997500D03*
D15*
X47932500Y-51097500D03*
X47932500Y-105997500D03*
D16*
%TO.P,U1,1,VCC*%
%TO.N,Net-(A1-3V3)*%
X46932500Y-95057500D03*
D11*
%TO.P,U1,2,GND*%
%TO.N,Net-(J1-GND)*%
X46932500Y-92517500D03*
%TO.P,U1,3,CS*%
%TO.N,Net-(A1-GPIO9)*%
X46932500Y-89977500D03*
%TO.P,U1,4,RESET*%
%TO.N,Net-(A1-GPIO7)*%
X46932500Y-87437500D03*
%TO.P,U1,5,DC*%
%TO.N,Net-(A1-GPIO8)*%
X46932500Y-84897500D03*
%TO.P,U1,6,SDI(MOSI)*%
%TO.N,Net-(A1-GPIO11)*%
X46932500Y-82357500D03*
%TO.P,U1,7,SCK*%
%TO.N,Net-(A1-GPIO10)*%
X46932500Y-79817500D03*
%TO.P,U1,8,LED*%
%TO.N,Net-(A1-GPIO22)*%
X46932500Y-77277500D03*
%TO.P,U1,9,SDO(MISO)*%
%TO.N,Net-(A1-GPIO12)*%
X46932500Y-74737500D03*
%TO.P,U1,10,T_CLK*%
%TO.N,Net-(A1-GPIO10)*%
X46932500Y-72197500D03*
%TO.P,U1,11,T_CS*%
%TO.N,Net-(A1-GPIO16)*%
X46932500Y-69657500D03*
%TO.P,U1,12,T_DIN*%
%TO.N,Net-(A1-GPIO11)*%
X46932500Y-67117500D03*
%TO.P,U1,13,T_DO*%
%TO.N,Net-(A1-GPIO12)*%
X46932500Y-64577500D03*
%TO.P,U1,14,T_IRQ*%
%TO.N,Net-(A1-GPIO17)*%
X46932500Y-62037500D03*
D16*
%TO.P,U1,15,SD_CS*%
%TO.N,Net-(A1-GPIO15)*%
X149972500Y-74737500D03*
D11*
%TO.P,U1,16,SD_MOSI*%
%TO.N,Net-(A1-GPIO11)*%
X149972500Y-77277500D03*
%TO.P,U1,17,SD_MISO*%
%TO.N,Net-(A1-GPIO12)*%
X149972500Y-79817500D03*
%TO.P,U1,18,SD_SCK*%
%TO.N,Net-(A1-GPIO10)*%
X149972500Y-82357500D03*
%TD*%
%TO.P,J2,1,GND*%
%TO.N,Net-(J1-GND)*%
X127000000Y-133000000D03*
%TO.P,J2,2,VCC*%
%TO.N,unconnected-(J2-VCC-Pad2)*%
X129000000Y-133000000D03*
%TO.P,J2,3,TX*%
%TO.N,Net-(A1-GPIO4)*%
X131000000Y-133000000D03*
%TO.P,J2,4,RX*%
%TO.N,Net-(A1-GPIO5)*%
X133000000Y-133000000D03*
%TD*%
%TO.P,J3,1,GND*%
%TO.N,Net-(J1-GND)*%
X109500000Y-133000000D03*
%TO.P,J3,2,VCC*%
%TO.N,unconnected-(J3-VCC-Pad2)*%
X111500000Y-133000000D03*
%TO.P,J3,3,TX*%
%TO.N,Net-(A1-GPIO0)*%
X113500000Y-133000000D03*
%TO.P,J3,4,RX*%
%TO.N,Net-(A1-GPIO1)*%
X115500000Y-133000000D03*
%TD*%
%TO.P,J4,1,GND*%
%TO.N,Net-(J1-GND)*%
X142500000Y-36000000D03*
%TO.P,J4,2,VCC*%
%TO.N,Net-(A1-3V3)*%
X144500000Y-36000000D03*
%TO.P,J4,3,SIG*%
%TO.N,Net-(A1-GPIO14)*%
X146500000Y-36000000D03*
%TO.P,J4,4,NC*%
%TO.N,unconnected-(J4-NC-Pad4)*%
X148500000Y-36000000D03*
%TD*%
D17*
%TO.P,J1,1,SCK*%
%TO.N,Net-(A1-GPIO10)*%
X159615000Y-74650000D03*
D18*
%TO.P,J1,2,MOSI*%
%TO.N,Net-(A1-GPIO11)*%
X159615000Y-77190000D03*
%TO.P,J1,3,MISO*%
%TO.N,Net-(A1-GPIO12)*%
X159615000Y-79730000D03*
%TO.P,J1,4,CS*%
%TO.N,Net-(A1-GPIO28_ADC2)*%
X159615000Y-82270000D03*
%TO.P,J1,5,5V*%
%TO.N,Net-(A1-VBUS)*%
X159615000Y-84810000D03*
%TO.P,J1,6,GND*%
%TO.N,Net-(J1-GND)*%
X159615000Y-87350000D03*
%TD*%
D17*
%TO.P,J6,1,RTS*%
%TO.N,unconnected-(J6-RTS-Pad1)*%
X46800000Y-42000000D03*
D18*
%TO.P,J6,2,RXD*%
%TO.N,Net-(A1-GPIO13)*%
X49340000Y-42000000D03*
%TO.P,J6,3,TXD*%
%TO.N,Net-(A1-GPIO6)*%
X51880000Y-42000000D03*
%TO.P,J6,4,VCC*%
%TO.N,unconnected-(J6-VCC-Pad4)*%
X54420000Y-42000000D03*
%TO.P,J6,5,CTS*%
%TO.N,unconnected-(J6-CTS-Pad5)*%
X56960000Y-42000000D03*
%TO.P,J6,6,GND*%
%TO.N,Net-(J1-GND)*%
X59500000Y-42000000D03*
%TD*%
D16*
%TO.P,J5,1,1*%
%TO.N,Net-(A1-GPIO18)*%
X144824669Y-128540000D03*
D11*
%TO.P,J5,2,2*%
%TO.N,Net-(A1-GPIO19)*%
X144824669Y-125770000D03*
%TO.P,J5,3,3*%
%TO.N,Net-(A1-GPIO20)*%
X144824669Y-123000000D03*
%TO.P,J5,4,4*%
%TO.N,Net-(A1-GPIO21)*%
X144824669Y-120230000D03*
%TO.P,J5,5,5*%
%TO.N,unconnected-(J5-Pad5)*%
X144824669Y-117460000D03*
%TO.P,J5,6,6*%
%TO.N,Net-(A1-GPIO26_ADC0)*%
X147664669Y-127155000D03*
%TO.P,J5,7,7*%
%TO.N,Net-(A1-GPIO27_ADC1)*%
X147664669Y-124385000D03*
%TO.P,J5,8,8*%
%TO.N,unconnected-(J5-Pad8)*%
X147664669Y-121615000D03*
%TO.P,J5,9,9*%
%TO.N,Net-(J1-GND)*%
X147664669Y-118845000D03*
%TD*%
%TO.P,J7,1,GND*%
%TO.N,Net-(J1-GND)*%
X159615000Y-62000000D03*
%TO.P,J7,2,VCC*%
%TO.N,Net-(A1-VBUS)*%
X159615000Y-60000000D03*
%TO.P,J7,3,SDA*%
%TO.N,Net-(A1-GPIO2)*%
X159615000Y-58000000D03*
%TO.P,J7,4,SCL*%
%TO.N,Net-(A1-GPIO3)*%
X159615000Y-56000000D03*
%TD*%
D19*
%TO.N,Net-(A1-GPIO15)*%
X101500000Y-127000000D03*
%TO.N,Net-(A1-GPIO14)*%
X100000000Y-129000000D03*
%TO.N,Net-(A1-VBUS)*%
X144500000Y-90500000D03*
%TO.N,Net-(A1-GPIO10)*%
X79000000Y-131000000D03*
X71500000Y-129500000D03*
%TO.N,Net-(A1-GPIO13)*%
X84000000Y-131000000D03*
%TO.N,Net-(A1-GPIO7)*%
X58000000Y-126000000D03*
X58000000Y-123900000D03*
%TO.N,Net-(A1-GPIO8)*%
X69831000Y-130500000D03*
X71500000Y-85000000D03*
%TO.N,Net-(A1-GPIO11)*%
X140500000Y-88000000D03*
X54500000Y-89000000D03*
%TO.N,Net-(A1-GPIO22)*%
X57000000Y-89000000D03*
%TD*%
D20*
%TO.N,Net-(J1-GND)*%
X159615000Y-87350000D02*
X159615000Y-88885000D01*
%TO.N,Net-(A1-GPIO26_ADC0)*%
X68730000Y-114270000D02*
X68730000Y-116110000D01*
X69500000Y-113500000D02*
X68730000Y-114270000D01*
X142821069Y-118728000D02*
X137593069Y-113500000D01*
X137593069Y-113500000D02*
X69500000Y-113500000D01*
X147232819Y-120514000D02*
X145446819Y-118728000D01*
X148765669Y-121158950D02*
X148120719Y-120514000D01*
X148765669Y-126054000D02*
X148765669Y-121158950D01*
X148120719Y-120514000D02*
X147232819Y-120514000D01*
X147664669Y-127155000D02*
X148765669Y-126054000D01*
X145446819Y-118728000D02*
X142821069Y-118728000D01*
%TO.N,Net-(A1-GPIO27_ADC1)*%
X67629000Y-116110000D02*
X66190000Y-116110000D01*
X67629000Y-116566050D02*
X67629000Y-116110000D01*
X69186050Y-117211000D02*
X68273950Y-117211000D01*
X69831000Y-116566050D02*
X69186050Y-117211000D01*
X69831000Y-116110000D02*
X69831000Y-116566050D01*
X70000000Y-116110000D02*
X69831000Y-116110000D01*
X70000000Y-114603000D02*
X70000000Y-116110000D01*
X142654969Y-119129000D02*
X138128969Y-114603000D01*
X145925669Y-119773950D02*
X145280719Y-119129000D01*
X145925669Y-121409750D02*
X145925669Y-119773950D01*
X146727669Y-122211750D02*
X145925669Y-121409750D01*
X138128969Y-114603000D02*
X70000000Y-114603000D01*
X146727669Y-123448000D02*
X146727669Y-122211750D01*
X68273950Y-117211000D02*
X67629000Y-116566050D01*
X147664669Y-124385000D02*
X146727669Y-123448000D01*
X145280719Y-119129000D02*
X142654969Y-119129000D01*
%TO.N,Net-(A1-GPIO22)*%
X65089000Y-116566050D02*
X66522950Y-118000000D01*
X65089000Y-115653950D02*
X65089000Y-116566050D01*
X62791150Y-113356100D02*
X65089000Y-115653950D01*
X66522950Y-118000000D02*
X70289000Y-118000000D01*
X62211000Y-116566050D02*
X62211000Y-113356100D01*
X60653950Y-117211000D02*
X61566050Y-117211000D01*
X61566050Y-117211000D02*
X62211000Y-116566050D01*
X60009000Y-116566050D02*
X60653950Y-117211000D01*
X60009000Y-92009000D02*
X60009000Y-116566050D01*
X57000000Y-89000000D02*
X60009000Y-92009000D01*
X62211000Y-113356100D02*
X62791150Y-113356100D01*
X71920000Y-118000000D02*
X73810000Y-116110000D01*
X70289000Y-118000000D02*
X71920000Y-118000000D01*
%TO.N,Net-(A1-GPIO15)*%
X101020000Y-127000000D02*
X94130000Y-133890000D01*
X101500000Y-127000000D02*
X101020000Y-127000000D01*
%TO.N,Net-(A1-GPIO14)*%
X97500000Y-135000000D02*
X92700000Y-135000000D01*
X100000000Y-132500000D02*
X97500000Y-135000000D01*
X92700000Y-135000000D02*
X91590000Y-133890000D01*
X100000000Y-129000000D02*
X100000000Y-132500000D01*
%TO.N,Net-(A1-VBUS)*%
X45110000Y-116110000D02*
X44500000Y-115500000D01*
X45870000Y-116110000D02*
X45110000Y-116110000D01*
X153925000Y-90500000D02*
X159615000Y-84810000D01*
X144500000Y-90500000D02*
X153925000Y-90500000D01*
%TO.N,Net-(A1-GPIO13)*%
X84000000Y-131380000D02*
X86510000Y-133890000D01*
X84000000Y-131000000D02*
X84000000Y-131380000D01*
%TO.N,Net-(A1-GPIO9)*%
X73810000Y-126560000D02*
X73810000Y-133890000D01*
X73625000Y-126375000D02*
X73810000Y-126560000D01*
%TO.N,Net-(A1-GPIO10)*%
X78890000Y-131110000D02*
X78890000Y-133890000D01*
X79000000Y-131000000D02*
X78890000Y-131110000D01*
X71500000Y-125000000D02*
X71500000Y-129500000D01*
X46476450Y-83796500D02*
X44099000Y-86173950D01*
X48033500Y-83151550D02*
X47388550Y-83796500D01*
X47388550Y-83796500D02*
X46476450Y-83796500D01*
X44099000Y-86173950D02*
X44099000Y-123426024D01*
X45672976Y-125000000D02*
X71500000Y-125000000D01*
X47807500Y-80692500D02*
X48033500Y-80918500D01*
X48033500Y-80918500D02*
X48033500Y-83151550D01*
X44099000Y-123426024D02*
X45672976Y-125000000D01*
%TO.N,Net-(A1-GPIO0)*%
X103500000Y-137000000D02*
X67407878Y-137000000D01*
X67407878Y-137000000D02*
X64756000Y-134348122D01*
X110500000Y-130000000D02*
X103500000Y-137000000D01*
X113500000Y-133000000D02*
X110500000Y-130000000D01*
X46480000Y-134500000D02*
X45870000Y-133890000D01*
X47462950Y-134500000D02*
X46480000Y-134500000D01*
X47309000Y-134346050D02*
X47462950Y-134500000D01*
X48904975Y-132827925D02*
X48866050Y-132789000D01*
X49349900Y-132383000D02*
X48904975Y-132827925D01*
X61727150Y-132383000D02*
X49349900Y-132383000D01*
X62544000Y-133199850D02*
X61727150Y-132383000D01*
X62544000Y-133080406D02*
X62544000Y-133199850D01*
X62840406Y-132784000D02*
X62544000Y-133080406D01*
X64459594Y-132784000D02*
X62840406Y-132784000D01*
X64756000Y-133080406D02*
X64459594Y-132784000D01*
X47309000Y-133433950D02*
X47309000Y-134346050D01*
X47953950Y-132789000D02*
X47309000Y-133433950D01*
X48866050Y-132789000D02*
X47953950Y-132789000D01*
X64756000Y-134348122D02*
X64756000Y-133080406D01*
%TO.N,Net-(A1-GPIO7)*%
X60840000Y-126000000D02*
X58000000Y-126000000D01*
X68730000Y-133890000D02*
X60840000Y-126000000D01*
%TO.N,Net-(A1-GPIO8)*%
X71270000Y-131939000D02*
X71270000Y-133890000D01*
X69831000Y-130500000D02*
X71270000Y-131939000D01*
%TO.N,Net-(J1-GND)*%
X142500000Y-58500000D02*
X142500000Y-36000000D01*
X142750000Y-58750000D02*
X142500000Y-58500000D01*
X142750000Y-59250000D02*
X142750000Y-58750000D01*
%TO.N,Net-(A1-GPIO8)*%
X71397500Y-84897500D02*
X71500000Y-85000000D01*
X46932500Y-84897500D02*
X71397500Y-84897500D01*
%TO.N,Net-(A1-GPIO11)*%
X55500000Y-88000000D02*
X140500000Y-88000000D01*
X54500000Y-89000000D02*
X55500000Y-88000000D01*
%TO.N,Net-(A1-GPIO10)*%
X48033500Y-78716500D02*
X46932500Y-79817500D01*
X48033500Y-73298500D02*
X48033500Y-78716500D01*
X46932500Y-72197500D02*
X48033500Y-73298500D01*
%TO.N,Net-(A1-GPIO11)*%
X45500000Y-80925000D02*
X46932500Y-82357500D01*
X45500000Y-68550000D02*
X45500000Y-80925000D01*
X46932500Y-67117500D02*
X45500000Y-68550000D01*
%TO.N,Net-(A1-GPIO10)*%
X47807500Y-80692500D02*
X46932500Y-79817500D01*
X49472500Y-82357500D02*
X47807500Y-80692500D01*
X149972500Y-82357500D02*
X49472500Y-82357500D01*
%TO.N,Net-(A1-GPIO28_ADC2)*%
X61110000Y-113890000D02*
X61110000Y-116110000D01*
X62401000Y-112599000D02*
X61110000Y-113890000D01*
X132500240Y-112599000D02*
X62401000Y-112599000D01*
X159138240Y-85961000D02*
X132500240Y-112599000D01*
X160091760Y-85961000D02*
X159138240Y-85961000D01*
X160766000Y-85286760D02*
X160091760Y-85961000D01*
X160766000Y-83421000D02*
X160766000Y-85286760D01*
X159615000Y-82270000D02*
X160766000Y-83421000D01*
%TO.N,Net-(A1-VBUS)*%
X46476450Y-86336500D02*
X44500000Y-88312950D01*
X158088500Y-86336500D02*
X46476450Y-86336500D01*
X44500000Y-88312950D02*
X44500000Y-115500000D01*
X159615000Y-84810000D02*
X158088500Y-86336500D01*
%TO.N,unconnected-(J5-Pad8)*%
X147664669Y-121615000D02*
X148115000Y-121615000D01*
%TO.N,Net-(A1-GPIO18)*%
X144456869Y-121498000D02*
X137962869Y-115004000D01*
X87616000Y-115004000D02*
X86510000Y-116110000D01*
X146326669Y-127038000D02*
X146326669Y-122377850D01*
X146326669Y-122377850D02*
X145446819Y-121498000D01*
X144824669Y-128540000D02*
X146326669Y-127038000D01*
X145446819Y-121498000D02*
X144456869Y-121498000D01*
X137962869Y-115004000D02*
X87616000Y-115004000D01*
%TO.N,Net-(A1-GPIO19)*%
X145280719Y-121899000D02*
X144290769Y-121899000D01*
X144290769Y-121899000D02*
X139607769Y-117216000D01*
X139607769Y-117216000D02*
X85076000Y-117216000D01*
X145925669Y-122543950D02*
X145280719Y-121899000D01*
X144824669Y-125770000D02*
X145925669Y-124669000D01*
X145925669Y-124669000D02*
X145925669Y-122543950D01*
X85076000Y-117216000D02*
X83970000Y-116110000D01*
%TO.N,Net-(A1-GPIO20)*%
X83119000Y-117799000D02*
X81430000Y-116110000D01*
X139623669Y-117799000D02*
X83119000Y-117799000D01*
X144824669Y-123000000D02*
X139623669Y-117799000D01*
%TO.N,Net-(A1-GPIO1)*%
X62211000Y-133433950D02*
X61561050Y-132784000D01*
X62211000Y-134346050D02*
X62211000Y-133433950D01*
X66864950Y-139000000D02*
X62211000Y-134346050D01*
X61561050Y-132784000D02*
X49516000Y-132784000D01*
X109500000Y-139000000D02*
X66864950Y-139000000D01*
X49516000Y-132784000D02*
X48410000Y-133890000D01*
X115500000Y-133000000D02*
X109500000Y-139000000D01*
%TO.N,Net-(A1-GPIO5)*%
X61110000Y-137890000D02*
X61110000Y-133890000D01*
X62500000Y-139280000D02*
X61110000Y-137890000D01*
X62500000Y-139500000D02*
X62500000Y-139280000D01*
X126500000Y-139500000D02*
X62500000Y-139500000D01*
X133000000Y-133000000D02*
X126500000Y-139500000D01*
%TO.N,Net-(A1-GPIO4)*%
X58570000Y-138070000D02*
X58570000Y-133890000D01*
X60500000Y-140000000D02*
X58570000Y-138070000D01*
X60500000Y-140500000D02*
X60500000Y-140000000D01*
X127057050Y-140500000D02*
X60500000Y-140500000D01*
X134101000Y-133456050D02*
X127057050Y-140500000D01*
X134101000Y-132543950D02*
X134101000Y-133456050D01*
X133456050Y-131899000D02*
X134101000Y-132543950D01*
X132101000Y-131899000D02*
X133456050Y-131899000D01*
X131000000Y-133000000D02*
X132101000Y-131899000D01*
%TO.N,Net-(A1-GPIO7)*%
X57500000Y-120000000D02*
X57500000Y-123500000D01*
X57500000Y-123500000D02*
X58000000Y-124000000D01*
X57500000Y-120000000D02*
X57469000Y-119969000D01*
X57469000Y-115653950D02*
X57469000Y-119969000D01*
X56315050Y-114500000D02*
X57469000Y-115653950D01*
X55000000Y-114500000D02*
X56315050Y-114500000D01*
X48437500Y-87437500D02*
X53000000Y-92000000D01*
X53000000Y-112500000D02*
X55000000Y-114500000D01*
X46932500Y-87437500D02*
X48437500Y-87437500D01*
X53000000Y-92000000D02*
X53000000Y-112500000D01*
%TO.N,Net-(A1-GPIO9)*%
X71750000Y-124500000D02*
X73625000Y-126375000D01*
X53000000Y-124500000D02*
X71750000Y-124500000D01*
X52000000Y-123500000D02*
X53000000Y-124500000D01*
X52056000Y-115651878D02*
X52056000Y-116919594D01*
X52000000Y-115595878D02*
X52056000Y-115651878D01*
X52000000Y-93500000D02*
X52000000Y-115595878D01*
X48477500Y-89977500D02*
X52000000Y-93500000D01*
X46932500Y-89977500D02*
X48477500Y-89977500D01*
X52000000Y-116975594D02*
X52000000Y-123500000D01*
X52056000Y-116919594D02*
X52000000Y-116975594D01*
%TO.N,Net-(J1-GND)*%
X50950000Y-94950000D02*
X50950000Y-116110000D01*
X48517500Y-92517500D02*
X50950000Y-94950000D01*
X46932500Y-92517500D02*
X48517500Y-92517500D01*
X145500000Y-62000000D02*
X142750000Y-59250000D01*
X159615000Y-62000000D02*
X145500000Y-62000000D01*
%TO.N,Net-(A1-GPIO10)*%
X155500000Y-82500000D02*
X155357500Y-82357500D01*
X155500000Y-75000000D02*
X155500000Y-82500000D01*
X155357500Y-82357500D02*
X149972500Y-82357500D01*
X155850000Y-74650000D02*
X155500000Y-75000000D01*
X159615000Y-74650000D02*
X155850000Y-74650000D01*
%TD*%
M02*
