%TF.GenerationSoftware,KiCad,Pcbnew,9.0.5*%
%TF.CreationDate,2026-06-27T16:47:46+09:00*%
%TF.ProjectId,pb1000_pico2,70623130-3030-45f7-9069-636f322e6b69,rev?*%
%TF.SameCoordinates,Original*%
%TF.FileFunction,Copper,L1,Top*%
%TF.FilePolarity,Positive*%
%FSLAX46Y46*%
G04 Gerber Fmt 4.6, Leading zero omitted, Abs format (unit mm)*
G04 Created by KiCad (PCBNEW 9.0.5) date 2026-06-27 16:47:46*
%MOMM*%
%LPD*%
G01*
G04 APERTURE LIST*
G04 Aperture macros list*
%AMRoundRect*
0 Rectangle with rounded corners*
0 $1 Rounding radius*
0 $2 $3 $4 $5 $6 $7 $8 $9 X,Y pos of 4 corners*
0 Add a 4 corners polygon primitive as box body*
4,1,4,$2,$3,$4,$5,$6,$7,$8,$9,$2,$3,0*
0 Add four circle primitives for the rounded corners*
1,1,$1+$1,$2,$3*
1,1,$1+$1,$4,$5*
1,1,$1+$1,$6,$7*
1,1,$1+$1,$8,$9*
0 Add four rect primitives between the rounded corners*
20,1,$1+$1,$2,$3,$4,$5,0*
20,1,$1+$1,$4,$5,$6,$7,0*
20,1,$1+$1,$6,$7,$8,$9,0*
20,1,$1+$1,$8,$9,$2,$3,0*%
%AMFreePoly0*
4,1,37,0.800000,0.796148,0.878414,0.796148,1.032228,0.765552,1.177117,0.705537,1.307515,0.618408,1.418408,0.507515,1.505537,0.377117,1.565552,0.232228,1.596148,0.078414,1.596148,-0.078414,1.565552,-0.232228,1.505537,-0.377117,1.418408,-0.507515,1.307515,-0.618408,1.177117,-0.705537,1.032228,-0.765552,0.878414,-0.796148,0.800000,-0.796148,0.800000,-0.800000,-1.400000,-0.800000,
-1.403843,-0.796157,-1.439018,-0.796157,-1.511114,-0.766294,-1.566294,-0.711114,-1.596157,-0.639018,-1.596157,-0.603843,-1.600000,-0.600000,-1.600000,0.600000,-1.596157,0.603843,-1.596157,0.639018,-1.566294,0.711114,-1.511114,0.766294,-1.439018,0.796157,-1.403843,0.796157,-1.400000,0.800000,0.800000,0.800000,0.800000,0.796148,0.800000,0.796148,$1*%
%AMFreePoly1*
4,1,37,1.403843,0.796157,1.439018,0.796157,1.511114,0.766294,1.566294,0.711114,1.596157,0.639018,1.596157,0.603843,1.600000,0.600000,1.600000,-0.600000,1.596157,-0.603843,1.596157,-0.639018,1.566294,-0.711114,1.511114,-0.766294,1.439018,-0.796157,1.403843,-0.796157,1.400000,-0.800000,-0.800000,-0.800000,-0.800000,-0.796148,-0.878414,-0.796148,-1.032228,-0.765552,-1.177117,-0.705537,
-1.307515,-0.618408,-1.418408,-0.507515,-1.505537,-0.377117,-1.565552,-0.232228,-1.596148,-0.078414,-1.596148,0.078414,-1.565552,0.232228,-1.505537,0.377117,-1.418408,0.507515,-1.307515,0.618408,-1.177117,0.705537,-1.032228,0.765552,-0.878414,0.796148,-0.800000,0.796148,-0.800000,0.800000,1.400000,0.800000,1.403843,0.796157,1.403843,0.796157,$1*%
%AMFreePoly2*
4,1,37,0.603843,0.796157,0.639018,0.796157,0.711114,0.766294,0.766294,0.711114,0.796157,0.639018,0.796157,0.603843,0.800000,0.600000,0.800000,-0.600000,0.796157,-0.603843,0.796157,-0.639018,0.766294,-0.711114,0.711114,-0.766294,0.639018,-0.796157,0.603843,-0.796157,0.600000,-0.800000,0.000000,-0.800000,0.000000,-0.796148,-0.078414,-0.796148,-0.232228,-0.765552,-0.377117,-0.705537,
-0.507515,-0.618408,-0.618408,-0.507515,-0.705537,-0.377117,-0.765552,-0.232228,-0.796148,-0.078414,-0.796148,0.078414,-0.765552,0.232228,-0.705537,0.377117,-0.618408,0.507515,-0.507515,0.618408,-0.377117,0.705537,-0.232228,0.765552,-0.078414,0.796148,0.000000,0.796148,0.000000,0.800000,0.600000,0.800000,0.603843,0.796157,0.603843,0.796157,$1*%
%AMFreePoly3*
4,1,37,0.000000,0.796148,0.078414,0.796148,0.232228,0.765552,0.377117,0.705537,0.507515,0.618408,0.618408,0.507515,0.705537,0.377117,0.765552,0.232228,0.796148,0.078414,0.796148,-0.078414,0.765552,-0.232228,0.705537,-0.377117,0.618408,-0.507515,0.507515,-0.618408,0.377117,-0.705537,0.232228,-0.765552,0.078414,-0.796148,0.000000,-0.796148,0.000000,-0.800000,-0.600000,-0.800000,
-0.603843,-0.796157,-0.639018,-0.796157,-0.711114,-0.766294,-0.766294,-0.711114,-0.796157,-0.639018,-0.796157,-0.603843,-0.800000,-0.600000,-0.800000,0.600000,-0.796157,0.603843,-0.796157,0.639018,-0.766294,0.711114,-0.711114,0.766294,-0.639018,0.796157,-0.603843,0.796157,-0.600000,0.800000,0.000000,0.800000,0.000000,0.796148,0.000000,0.796148,$1*%
G04 Aperture macros list end*
%TA.AperFunction,SMDPad,CuDef*%
%ADD10FreePoly0,90.000000*%
%TD*%
%TA.AperFunction,ComponentPad*%
%ADD11RoundRect,0.200000X0.600000X-0.600000X0.600000X0.600000X-0.600000X0.600000X-0.600000X-0.600000X0*%
%TD*%
%TA.AperFunction,SMDPad,CuDef*%
%ADD12RoundRect,0.800000X0.000010X-0.800000X0.000010X0.800000X-0.000010X0.800000X-0.000010X-0.800000X0*%
%TD*%
%TA.AperFunction,ComponentPad*%
%ADD13C,1.600000*%
%TD*%
%TA.AperFunction,SMDPad,CuDef*%
%ADD14FreePoly1,90.000000*%
%TD*%
%TA.AperFunction,ComponentPad*%
%ADD15FreePoly2,90.000000*%
%TD*%
%TA.AperFunction,ComponentPad*%
%ADD16FreePoly3,90.000000*%
%TD*%
%TA.AperFunction,ComponentPad*%
%ADD17C,4.700000*%
%TD*%
%TA.AperFunction,ComponentPad*%
%ADD18C,3.200000*%
%TD*%
%TA.AperFunction,ComponentPad*%
%ADD19R,1.600000X1.600000*%
%TD*%
%TA.AperFunction,ComponentPad*%
%ADD20R,1.700000X1.700000*%
%TD*%
%TA.AperFunction,ComponentPad*%
%ADD21C,1.700000*%
%TD*%
%TA.AperFunction,ViaPad*%
%ADD22C,0.600000*%
%TD*%
%TA.AperFunction,Conductor*%
%ADD23C,0.200000*%
%TD*%
G04 APERTURE END LIST*
D10*
%TO.P,A1,1,GPIO0*%
%TO.N,Net-(A1-GPIO0)*%
X45870000Y-134690000D03*
D11*
X45870000Y-133890000D03*
D12*
%TO.P,A1,2,GPIO1*%
%TO.N,Net-(A1-GPIO1)*%
X48410000Y-134690000D03*
D13*
X48410000Y-133890000D03*
D14*
%TO.P,A1,3,GND*%
%TO.N,Net-(J1-GND)*%
X50950000Y-134690000D03*
D15*
X50950000Y-133890000D03*
D12*
%TO.P,A1,4,GPIO2*%
%TO.N,Net-(A1-GPIO2)*%
X53490000Y-134690000D03*
D13*
X53490000Y-133890000D03*
D12*
%TO.P,A1,5,GPIO3*%
%TO.N,Net-(A1-GPIO3)*%
X56030000Y-134690000D03*
D13*
X56030000Y-133890000D03*
D12*
%TO.P,A1,6,GPIO4*%
%TO.N,Net-(A1-GPIO4)*%
X58570000Y-134690000D03*
D13*
X58570000Y-133890000D03*
D12*
%TO.P,A1,7,GPIO5*%
%TO.N,Net-(A1-GPIO5)*%
X61110000Y-134690000D03*
D13*
X61110000Y-133890000D03*
D14*
%TO.P,A1,8,GND*%
%TO.N,Net-(J1-GND)*%
X63650000Y-134690000D03*
D15*
X63650000Y-133890000D03*
D12*
%TO.P,A1,9,GPIO6*%
%TO.N,Net-(A1-GPIO6)*%
X66190000Y-134690000D03*
D13*
X66190000Y-133890000D03*
D12*
%TO.P,A1,10,GPIO7*%
%TO.N,Net-(A1-GPIO7)*%
X68730000Y-134690000D03*
D13*
X68730000Y-133890000D03*
D12*
%TO.P,A1,11,GPIO8*%
%TO.N,Net-(A1-GPIO8)*%
X71270000Y-134690000D03*
D13*
X71270000Y-133890000D03*
D12*
%TO.P,A1,12,GPIO9*%
%TO.N,Net-(A1-GPIO9)*%
X73810000Y-134690000D03*
D13*
X73810000Y-133890000D03*
D14*
%TO.P,A1,13,GND*%
%TO.N,Net-(J1-GND)*%
X76350000Y-134690000D03*
D15*
X76350000Y-133890000D03*
D12*
%TO.P,A1,14,GPIO10*%
%TO.N,Net-(A1-GPIO10)*%
X78890000Y-134690000D03*
D13*
X78890000Y-133890000D03*
D12*
%TO.P,A1,15,GPIO11*%
%TO.N,Net-(A1-GPIO11)*%
X81430000Y-134690000D03*
D13*
X81430000Y-133890000D03*
D12*
%TO.P,A1,16,GPIO12*%
%TO.N,Net-(A1-GPIO12)*%
X83970000Y-134690000D03*
D13*
X83970000Y-133890000D03*
D12*
%TO.P,A1,17,GPIO13*%
%TO.N,Net-(A1-GPIO13)*%
X86510000Y-134690000D03*
D13*
X86510000Y-133890000D03*
D14*
%TO.P,A1,18,GND*%
%TO.N,Net-(J1-GND)*%
X89050000Y-134690000D03*
D15*
X89050000Y-133890000D03*
D12*
%TO.P,A1,19,GPIO14*%
%TO.N,Net-(A1-GPIO14)*%
X91590000Y-134690000D03*
D13*
X91590000Y-133890000D03*
D12*
%TO.P,A1,20,GPIO15*%
%TO.N,Net-(A1-GPIO15)*%
X94130000Y-134690000D03*
D13*
X94130000Y-133890000D03*
%TO.P,A1,21,GPIO16*%
%TO.N,Net-(A1-GPIO16)*%
X94130000Y-116110000D03*
D12*
X94130000Y-115310000D03*
D13*
%TO.P,A1,22,GPIO17*%
%TO.N,Net-(A1-GPIO17)*%
X91590000Y-116110000D03*
D12*
X91590000Y-115310000D03*
D16*
%TO.P,A1,23,GND*%
%TO.N,Net-(J1-GND)*%
X89050000Y-116110000D03*
D10*
X89050000Y-115310000D03*
D13*
%TO.P,A1,24,GPIO18*%
%TO.N,Net-(A1-GPIO18)*%
X86510000Y-116110000D03*
D12*
X86510000Y-115310000D03*
D13*
%TO.P,A1,25,GPIO19*%
%TO.N,Net-(A1-GPIO19)*%
X83970000Y-116110000D03*
D12*
X83970000Y-115310000D03*
D13*
%TO.P,A1,26,GPIO20*%
%TO.N,Net-(A1-GPIO20)*%
X81430000Y-116110000D03*
D12*
X81430000Y-115310000D03*
D13*
%TO.P,A1,27,GPIO21*%
%TO.N,Net-(A1-GPIO21)*%
X78890000Y-116110000D03*
D12*
X78890000Y-115310000D03*
D16*
%TO.P,A1,28,GND*%
%TO.N,Net-(J1-GND)*%
X76350000Y-116110000D03*
D10*
X76350000Y-115310000D03*
D13*
%TO.P,A1,29,GPIO22*%
%TO.N,Net-(A1-GPIO22)*%
X73810000Y-116110000D03*
D12*
X73810000Y-115310000D03*
D13*
%TO.P,A1,30,RUN*%
%TO.N,unconnected-(A1-RUN-Pad30)*%
X71270000Y-116110000D03*
D12*
%TO.N,unconnected-(A1-RUN-Pad30)_1*%
X71270000Y-115310000D03*
D13*
%TO.P,A1,31,GPIO26_ADC0*%
%TO.N,Net-(A1-GPIO26_ADC0)*%
X68730000Y-116110000D03*
D12*
X68730000Y-115310000D03*
D13*
%TO.P,A1,32,GPIO27_ADC1*%
%TO.N,Net-(A1-GPIO27_ADC1)*%
X66190000Y-116110000D03*
D12*
X66190000Y-115310000D03*
D16*
%TO.P,A1,33,AGND*%
%TO.N,unconnected-(A1-AGND-Pad33)_1*%
X63650000Y-116110000D03*
D10*
%TO.N,unconnected-(A1-AGND-Pad33)*%
X63650000Y-115310000D03*
D13*
%TO.P,A1,34,GPIO28_ADC2*%
%TO.N,Net-(A1-GPIO28_ADC2)*%
X61110000Y-116110000D03*
D12*
X61110000Y-115310000D03*
D13*
%TO.P,A1,35,ADC_VREF*%
%TO.N,unconnected-(A1-ADC_VREF-Pad35)*%
X58570000Y-116110000D03*
D12*
%TO.N,unconnected-(A1-ADC_VREF-Pad35)_1*%
X58570000Y-115310000D03*
D13*
%TO.P,A1,36,3V3*%
%TO.N,Net-(A1-3V3)*%
X56030000Y-116110000D03*
D12*
X56030000Y-115310000D03*
D13*
%TO.P,A1,37,3V3_EN*%
%TO.N,unconnected-(A1-3V3_EN-Pad37)_1*%
X53490000Y-116110000D03*
D12*
%TO.N,unconnected-(A1-3V3_EN-Pad37)*%
X53490000Y-115310000D03*
D16*
%TO.P,A1,38,GND*%
%TO.N,Net-(J1-GND)*%
X50950000Y-116110000D03*
D10*
X50950000Y-115310000D03*
D13*
%TO.P,A1,39,VSYS*%
%TO.N,unconnected-(A1-VSYS-Pad39)*%
X48410000Y-116110000D03*
D12*
%TO.N,unconnected-(A1-VSYS-Pad39)_1*%
X48410000Y-115310000D03*
D13*
%TO.P,A1,40,VBUS*%
%TO.N,Net-(A1-VBUS)*%
X45870000Y-116110000D03*
D12*
X45870000Y-115310000D03*
%TD*%
D17*
%TO.P,U1,*%
%TO.N,*%
X149972500Y-51097500D03*
X149972500Y-105997500D03*
D18*
X47932500Y-51097500D03*
X47932500Y-105997500D03*
D19*
%TO.P,U1,1,VCC*%
%TO.N,Net-(A1-3V3)*%
X46932500Y-95057500D03*
D13*
%TO.P,U1,2,GND*%
%TO.N,Net-(J1-GND)*%
X46932500Y-92517500D03*
%TO.P,U1,3,CS*%
%TO.N,Net-(A1-GPIO9)*%
X46932500Y-89977500D03*
%TO.P,U1,4,RESET*%
%TO.N,Net-(A1-GPIO7)*%
X46932500Y-87437500D03*
%TO.P,U1,5,DC*%
%TO.N,Net-(A1-GPIO8)*%
X46932500Y-84897500D03*
%TO.P,U1,6,SDI(MOSI)*%
%TO.N,Net-(A1-GPIO11)*%
X46932500Y-82357500D03*
%TO.P,U1,7,SCK*%
%TO.N,Net-(A1-GPIO10)*%
X46932500Y-79817500D03*
%TO.P,U1,8,LED*%
%TO.N,Net-(A1-GPIO22)*%
X46932500Y-77277500D03*
%TO.P,U1,9,SDO(MISO)*%
%TO.N,Net-(A1-GPIO12)*%
X46932500Y-74737500D03*
%TO.P,U1,10,T_CLK*%
%TO.N,Net-(A1-GPIO10)*%
X46932500Y-72197500D03*
%TO.P,U1,11,T_CS*%
%TO.N,Net-(A1-GPIO16)*%
X46932500Y-69657500D03*
%TO.P,U1,12,T_DIN*%
%TO.N,Net-(A1-GPIO11)*%
X46932500Y-67117500D03*
%TO.P,U1,13,T_DO*%
%TO.N,Net-(A1-GPIO12)*%
X46932500Y-64577500D03*
%TO.P,U1,14,T_IRQ*%
%TO.N,Net-(A1-GPIO17)*%
X46932500Y-62037500D03*
D19*
%TO.P,U1,15,SD_CS*%
%TO.N,Net-(A1-GPIO15)*%
X149972500Y-74737500D03*
D13*
%TO.P,U1,16,SD_MOSI*%
%TO.N,Net-(A1-GPIO11)*%
X149972500Y-77277500D03*
%TO.P,U1,17,SD_MISO*%
%TO.N,Net-(A1-GPIO12)*%
X149972500Y-79817500D03*
%TO.P,U1,18,SD_SCK*%
%TO.N,Net-(A1-GPIO10)*%
X149972500Y-82357500D03*
%TD*%
%TO.P,J2,1,GND*%
%TO.N,Net-(J1-GND)*%
X127000000Y-133000000D03*
%TO.P,J2,2,VCC*%
%TO.N,unconnected-(J2-VCC-Pad2)*%
X129000000Y-133000000D03*
%TO.P,J2,3,TX*%
%TO.N,Net-(A1-GPIO4)*%
X131000000Y-133000000D03*
%TO.P,J2,4,RX*%
%TO.N,Net-(A1-GPIO5)*%
X133000000Y-133000000D03*
%TD*%
%TO.P,J3,1,GND*%
%TO.N,Net-(J1-GND)*%
X109500000Y-133000000D03*
%TO.P,J3,2,VCC*%
%TO.N,unconnected-(J3-VCC-Pad2)*%
X111500000Y-133000000D03*
%TO.P,J3,3,TX*%
%TO.N,Net-(A1-GPIO0)*%
X113500000Y-133000000D03*
%TO.P,J3,4,RX*%
%TO.N,Net-(A1-GPIO1)*%
X115500000Y-133000000D03*
%TD*%
%TO.P,J4,1,GND*%
%TO.N,Net-(J1-GND)*%
X142500000Y-36000000D03*
%TO.P,J4,2,VCC*%
%TO.N,Net-(A1-3V3)*%
X144500000Y-36000000D03*
%TO.P,J4,3,SIG*%
%TO.N,Net-(A1-GPIO14)*%
X146500000Y-36000000D03*
%TO.P,J4,4,NC*%
%TO.N,unconnected-(J4-NC-Pad4)*%
X148500000Y-36000000D03*
%TD*%
D20*
%TO.P,J1,1,SCK*%
%TO.N,Net-(A1-GPIO10)*%
X159615000Y-74650000D03*
D21*
%TO.P,J1,2,MOSI*%
%TO.N,Net-(A1-GPIO11)*%
X159615000Y-77190000D03*
%TO.P,J1,3,MISO*%
%TO.N,Net-(A1-GPIO12)*%
X159615000Y-79730000D03*
%TO.P,J1,4,CS*%
%TO.N,Net-(A1-GPIO28_ADC2)*%
X159615000Y-82270000D03*
%TO.P,J1,5,5V*%
%TO.N,Net-(A1-VBUS)*%
X159615000Y-84810000D03*
%TO.P,J1,6,GND*%
%TO.N,Net-(J1-GND)*%
X159615000Y-87350000D03*
%TD*%
D20*
%TO.P,J6,1,RTS*%
%TO.N,unconnected-(J6-RTS-Pad1)*%
X46800000Y-42000000D03*
D21*
%TO.P,J6,2,RXD*%
%TO.N,Net-(A1-GPIO13)*%
X49340000Y-42000000D03*
%TO.P,J6,3,TXD*%
%TO.N,Net-(A1-GPIO6)*%
X51880000Y-42000000D03*
%TO.P,J6,4,VCC*%
%TO.N,unconnected-(J6-VCC-Pad4)*%
X54420000Y-42000000D03*
%TO.P,J6,5,CTS*%
%TO.N,unconnected-(J6-CTS-Pad5)*%
X56960000Y-42000000D03*
%TO.P,J6,6,GND*%
%TO.N,Net-(J1-GND)*%
X59500000Y-42000000D03*
%TD*%
D19*
%TO.P,J5,1,1*%
%TO.N,Net-(A1-GPIO18)*%
X144824669Y-128540000D03*
D13*
%TO.P,J5,2,2*%
%TO.N,Net-(A1-GPIO19)*%
X144824669Y-125770000D03*
%TO.P,J5,3,3*%
%TO.N,Net-(A1-GPIO20)*%
X144824669Y-123000000D03*
%TO.P,J5,4,4*%
%TO.N,Net-(A1-GPIO21)*%
X144824669Y-120230000D03*
%TO.P,J5,5,5*%
%TO.N,unconnected-(J5-Pad5)*%
X144824669Y-117460000D03*
%TO.P,J5,6,6*%
%TO.N,Net-(A1-GPIO26_ADC0)*%
X147664669Y-127155000D03*
%TO.P,J5,7,7*%
%TO.N,Net-(A1-GPIO27_ADC1)*%
X147664669Y-124385000D03*
%TO.P,J5,8,8*%
%TO.N,unconnected-(J5-Pad8)*%
X147664669Y-121615000D03*
%TO.P,J5,9,9*%
%TO.N,Net-(J1-GND)*%
X147664669Y-118845000D03*
%TD*%
%TO.P,J7,1,GND*%
%TO.N,Net-(J1-GND)*%
X159615000Y-62000000D03*
%TO.P,J7,2,VCC*%
%TO.N,Net-(A1-VBUS)*%
X159615000Y-60000000D03*
%TO.P,J7,3,SDA*%
%TO.N,Net-(A1-GPIO2)*%
X159615000Y-58000000D03*
%TO.P,J7,4,SCL*%
%TO.N,Net-(A1-GPIO3)*%
X159615000Y-56000000D03*
%TD*%
D22*
%TO.N,Net-(A1-GPIO15)*%
X101500000Y-127000000D03*
%TO.N,Net-(A1-GPIO14)*%
X100000000Y-129000000D03*
%TO.N,Net-(A1-VBUS)*%
X144500000Y-90500000D03*
%TO.N,Net-(A1-GPIO10)*%
X79000000Y-131000000D03*
X71500000Y-129500000D03*
%TO.N,Net-(A1-GPIO13)*%
X84000000Y-131000000D03*
%TO.N,Net-(A1-GPIO7)*%
X58000000Y-126000000D03*
X58000000Y-123900000D03*
%TO.N,Net-(A1-GPIO8)*%
X69831000Y-130500000D03*
X71500000Y-85000000D03*
%TO.N,Net-(A1-GPIO11)*%
X140500000Y-88000000D03*
X54500000Y-89000000D03*
%TO.N,Net-(A1-GPIO22)*%
X57000000Y-89000000D03*
%TD*%
D23*
%TO.N,Net-(A1-GPIO15)*%
X101500000Y-123210000D02*
X101500000Y-127000000D01*
X149972500Y-74737500D02*
X101500000Y-123210000D01*
%TO.N,Net-(A1-VBUS)*%
X139899000Y-85793950D02*
X139899000Y-88248943D01*
X142150057Y-90500000D02*
X144500000Y-90500000D01*
X139899000Y-88248943D02*
X142150057Y-90500000D01*
X149516450Y-76176500D02*
X139899000Y-85793950D01*
X155387500Y-76176500D02*
X149516450Y-76176500D01*
X158063000Y-73501000D02*
X155387500Y-76176500D01*
X158063000Y-61552000D02*
X158063000Y-73501000D01*
X159615000Y-60000000D02*
X158063000Y-61552000D01*
%TO.N,Net-(J1-GND)*%
X160766000Y-75734000D02*
X160766000Y-72302000D01*
X160766000Y-72302000D02*
X158464000Y-70000000D01*
X160699000Y-75801000D02*
X160766000Y-75734000D01*
X159500000Y-75801000D02*
X160699000Y-75801000D01*
X76350000Y-133890000D02*
X76350000Y-134695000D01*
X89050000Y-133890000D02*
X89050000Y-134695000D01*
X89050000Y-134695000D02*
X92855000Y-138500000D01*
%TO.N,Net-(A1-GPIO10)*%
X77500000Y-129500000D02*
X79000000Y-131000000D01*
X71500000Y-129500000D02*
X77500000Y-129500000D01*
%TO.N,Net-(A1-GPIO13)*%
X80360950Y-131000000D02*
X84000000Y-131000000D01*
X77456000Y-128095050D02*
X80360950Y-131000000D01*
X77456000Y-57761140D02*
X77456000Y-128095050D01*
X60142860Y-40448000D02*
X77456000Y-57761140D01*
X49340000Y-42000000D02*
X50892000Y-40448000D01*
X50892000Y-40448000D02*
X60142860Y-40448000D01*
%TO.N,Net-(J1-GND)*%
X97000000Y-138500000D02*
X100500000Y-138500000D01*
X97000000Y-138500000D02*
X92855000Y-138500000D01*
%TO.N,Net-(A1-GPIO7)*%
X58000000Y-126000000D02*
X58000000Y-123900000D01*
%TO.N,Net-(A1-GPIO8)*%
X69831000Y-86669000D02*
X69831000Y-130500000D01*
X71500000Y-85000000D02*
X69831000Y-86669000D01*
%TO.N,Net-(A1-GPIO11)*%
X140500000Y-86750000D02*
X149972500Y-77277500D01*
X140500000Y-88000000D02*
X140500000Y-86750000D01*
X50000000Y-84500000D02*
X54500000Y-89000000D01*
X49075000Y-84500000D02*
X50000000Y-84500000D01*
X46932500Y-82357500D02*
X49075000Y-84500000D01*
%TO.N,Net-(A1-GPIO22)*%
X57000000Y-87345000D02*
X57000000Y-89000000D01*
X46932500Y-77277500D02*
X57000000Y-87345000D01*
%TO.N,Net-(A1-GPIO12)*%
X45831500Y-65678500D02*
X46932500Y-64577500D01*
X45831500Y-73636500D02*
X45831500Y-65678500D01*
X46932500Y-74737500D02*
X45831500Y-73636500D01*
%TO.N,Net-(A1-GPIO16)*%
X48033500Y-68556500D02*
X46932500Y-69657500D01*
X48033500Y-64121450D02*
X48033500Y-68556500D01*
X47388550Y-63476500D02*
X48033500Y-64121450D01*
X46476450Y-63476500D02*
X47388550Y-63476500D01*
X45500000Y-62500050D02*
X46476450Y-63476500D01*
X45500000Y-40998000D02*
X45500000Y-62500050D01*
X46852000Y-39646000D02*
X45500000Y-40998000D01*
X60475060Y-39646000D02*
X46852000Y-39646000D01*
X94130000Y-73300940D02*
X60475060Y-39646000D01*
X94130000Y-116110000D02*
X94130000Y-73300940D01*
%TO.N,Net-(A1-GPIO12)*%
X82064000Y-132784000D02*
X83970000Y-134690000D01*
X68278950Y-132784000D02*
X82064000Y-132784000D01*
X66646050Y-136591000D02*
X67291000Y-135946050D01*
X65733950Y-136591000D02*
X66646050Y-136591000D01*
X65089000Y-135946050D02*
X65733950Y-136591000D01*
X65089000Y-132556100D02*
X65089000Y-135946050D01*
X62099000Y-129566100D02*
X65089000Y-132556100D01*
X62099000Y-118656050D02*
X62099000Y-129566100D01*
X60009000Y-116566050D02*
X62099000Y-118656050D01*
X60009000Y-104949050D02*
X60009000Y-116566050D01*
X48678450Y-93618500D02*
X60009000Y-104949050D01*
X46476450Y-93618500D02*
X48678450Y-93618500D01*
X45831500Y-92973550D02*
X46476450Y-93618500D01*
X45831500Y-65678500D02*
X45831500Y-92973550D01*
X67291000Y-135946050D02*
X67291000Y-133771950D01*
X67291000Y-133771950D02*
X68278950Y-132784000D01*
%TO.N,Net-(A1-GPIO17)*%
X91590000Y-71328040D02*
X91590000Y-115310000D01*
X60308960Y-40047000D02*
X91590000Y-71328040D01*
X49665240Y-40047000D02*
X60308960Y-40047000D01*
X48189000Y-41523240D02*
X49665240Y-40047000D01*
X48189000Y-42476760D02*
X48189000Y-41523240D01*
X59099000Y-53386760D02*
X48189000Y-42476760D01*
X59099000Y-62037500D02*
X59099000Y-53386760D01*
X58299001Y-62837499D02*
X59099000Y-62037500D01*
X47732499Y-62837499D02*
X58299001Y-62837499D01*
X46932500Y-62037500D02*
X47732499Y-62837499D01*
%TO.N,Net-(A1-GPIO6)*%
X66190000Y-133090000D02*
X66190000Y-134690000D01*
X62500000Y-43372240D02*
X62500000Y-129400000D01*
X59976760Y-40849000D02*
X62500000Y-43372240D01*
X62500000Y-129400000D02*
X66190000Y-133090000D01*
X53031000Y-40849000D02*
X59976760Y-40849000D01*
X51880000Y-42000000D02*
X53031000Y-40849000D01*
%TO.N,Net-(A1-GPIO2)*%
X53490000Y-134310000D02*
X53490000Y-134690000D01*
X48861050Y-132784000D02*
X51964000Y-132784000D01*
X41698000Y-125620950D02*
X48861050Y-132784000D01*
X41698000Y-37167800D02*
X41698000Y-125620950D01*
X45768800Y-33097000D02*
X41698000Y-37167800D01*
X147721150Y-33097000D02*
X45768800Y-33097000D01*
X160716000Y-46091850D02*
X147721150Y-33097000D01*
X160716000Y-56899000D02*
X160716000Y-46091850D01*
X159615000Y-58000000D02*
X160716000Y-56899000D01*
X51964000Y-132784000D02*
X53490000Y-134310000D01*
%TO.N,Net-(A1-GPIO3)*%
X51449000Y-130109000D02*
X56030000Y-134690000D01*
X51449000Y-124663000D02*
X51449000Y-130109000D01*
X52056000Y-124056000D02*
X51449000Y-124663000D01*
X52056000Y-114051878D02*
X52056000Y-124056000D01*
X42099000Y-104094878D02*
X52056000Y-114051878D01*
X42099000Y-37333900D02*
X42099000Y-104094878D01*
X45934900Y-33498000D02*
X42099000Y-37333900D01*
X147555050Y-33498000D02*
X45934900Y-33498000D01*
X159615000Y-45557950D02*
X147555050Y-33498000D01*
X159615000Y-56000000D02*
X159615000Y-45557950D01*
%TO.N,Net-(A1-GPIO11)*%
X86323950Y-139401000D02*
X81430000Y-134507050D01*
X160766000Y-123801100D02*
X145166100Y-139401000D01*
X145166100Y-139401000D02*
X86323950Y-139401000D01*
X81430000Y-134507050D02*
X81430000Y-133890000D01*
X160766000Y-79253240D02*
X160766000Y-123801100D01*
X158790260Y-77277500D02*
X160766000Y-79253240D01*
X149972500Y-77277500D02*
X158790260Y-77277500D01*
%TO.N,Net-(A1-GPIO12)*%
X110236100Y-121331000D02*
X98965100Y-132602000D01*
X98965100Y-132602000D02*
X85258000Y-132602000D01*
X85258000Y-132602000D02*
X83970000Y-133890000D01*
X145925669Y-83864331D02*
X145925669Y-120686050D01*
X145280719Y-121331000D02*
X110236100Y-121331000D01*
X149972500Y-79817500D02*
X145925669Y-83864331D01*
X145925669Y-120686050D02*
X145280719Y-121331000D01*
%TO.N,Net-(A1-GPIO21)*%
X78890000Y-124132836D02*
X78890000Y-116110000D01*
X86958164Y-132201000D02*
X78890000Y-124132836D01*
X98799000Y-132201000D02*
X86958164Y-132201000D01*
X110770000Y-120230000D02*
X98799000Y-132201000D01*
X144824669Y-120230000D02*
X110770000Y-120230000D01*
%TO.N,Net-(J1-GND)*%
X109500000Y-131500000D02*
X109500000Y-133000000D01*
X112500000Y-128500000D02*
X109500000Y-131500000D01*
X130000000Y-139000000D02*
X130000000Y-138000000D01*
X130000000Y-138000000D02*
X127000000Y-135000000D01*
X145000000Y-139000000D02*
X130000000Y-139000000D01*
X151500000Y-132500000D02*
X145000000Y-139000000D01*
X151500000Y-121000000D02*
X151500000Y-132500000D01*
X147664669Y-118845000D02*
X149345000Y-118845000D01*
X149345000Y-118845000D02*
X151500000Y-121000000D01*
X127000000Y-135000000D02*
X127000000Y-133000000D01*
%TO.N,Net-(A1-3V3)*%
X45057500Y-95057500D02*
X46932500Y-95057500D01*
X136101000Y-33899000D02*
X136000000Y-34000000D01*
X142399000Y-33899000D02*
X136101000Y-33899000D01*
X42500000Y-37500000D02*
X42500000Y-92500000D01*
X144500000Y-36000000D02*
X142399000Y-33899000D01*
X136000000Y-34000000D02*
X46000000Y-34000000D01*
X46000000Y-34000000D02*
X42500000Y-37500000D01*
X42500000Y-92500000D02*
X45057500Y-95057500D01*
X53500000Y-105500000D02*
X56030000Y-108030000D01*
X50123420Y-105500000D02*
X53500000Y-105500000D01*
X56030000Y-108030000D02*
X56030000Y-116110000D01*
X46932500Y-102309080D02*
X50123420Y-105500000D01*
X46932500Y-95057500D02*
X46932500Y-102309080D01*
%TO.N,Net-(A1-GPIO14)*%
X107000000Y-46000000D02*
X100000000Y-53000000D01*
X143500000Y-46000000D02*
X107000000Y-46000000D01*
X100000000Y-53000000D02*
X100000000Y-129000000D01*
X146500000Y-36000000D02*
X146500000Y-43000000D01*
X146500000Y-43000000D02*
X143500000Y-46000000D01*
%TO.N,Net-(J1-GND)*%
X46932500Y-92517500D02*
X56482500Y-92517500D01*
X56482500Y-92517500D02*
X59500000Y-89500000D01*
X59500000Y-42000000D02*
X59500000Y-89500000D01*
X122500000Y-128500000D02*
X112500000Y-128500000D01*
X127000000Y-133000000D02*
X122500000Y-128500000D01*
X104000000Y-138500000D02*
X97000000Y-138500000D01*
X109500000Y-133000000D02*
X104000000Y-138500000D01*
X147321500Y-118501831D02*
X147664669Y-118845000D01*
X159500000Y-97500000D02*
X149500000Y-97500000D01*
X149500000Y-97500000D02*
X147321500Y-99678500D01*
X159615000Y-97385000D02*
X159500000Y-97500000D01*
X159615000Y-87350000D02*
X159615000Y-97385000D01*
X147321500Y-99678500D02*
X147321500Y-118501831D01*
X158464000Y-63151000D02*
X158464000Y-70000000D01*
X159615000Y-62000000D02*
X158464000Y-63151000D01*
%TO.N,Net-(A1-GPIO11)*%
X159615000Y-77190000D02*
X150060000Y-77190000D01*
X150060000Y-77190000D02*
X149972500Y-77277500D01*
%TO.N,Net-(A1-GPIO12)*%
X159615000Y-79730000D02*
X150060000Y-79730000D01*
X150060000Y-79730000D02*
X149972500Y-79817500D01*
%TD*%
M02*
